<svg width="67" height="67" viewBox="0 0 67 67" fill="none" xmlns="http://www.w3.org/2000/svg">
<path d="M54.062 41.504C53.648 41.504 53.372 41.504 53.234 41.504C53.372 41.228 53.51 40.952 53.648 40.676L60.824 39.02C61.514 38.882 61.928 38.33 61.928 37.64V29.084C61.928 28.394 61.514 27.842 60.824 27.704L53.51 26.048C53.234 25.496 53.096 24.944 52.82 24.392L56.684 18.182C56.96 17.63 56.96 16.94 56.546 16.526L50.474 10.454C50.06 10.04 49.37 9.90204 48.818 10.316L42.47 14.18C41.918 13.904 41.366 13.766 40.814 13.49L39.02 6.17604C38.882 5.48604 38.33 5.07204 37.64 5.07204H29.084C28.394 5.07204 27.842 5.48604 27.704 6.17604L25.91 13.49C25.634 13.628 25.496 13.628 25.22 13.766C25.22 13.49 25.22 13.214 25.22 13.076C25.22 9.76404 23.978 6.59004 21.494 4.10604C18.044 0.656037 13.214 -0.447963 8.66004 1.07004C8.38404 1.20804 8.10804 1.62204 7.97004 2.03604C7.83204 2.45004 7.97004 3.00204 8.38404 3.27804L13.628 8.66004L8.66004 13.628L3.27804 8.38404C3.00204 7.97004 2.45004 7.83204 2.03604 7.97004C1.62204 8.10804 1.20804 8.38404 1.07004 8.79804C-0.447963 13.352 0.656037 18.32 4.10604 21.77C6.45204 24.116 9.62604 25.496 13.076 25.496C13.352 25.496 13.628 25.496 13.766 25.496C13.628 25.772 13.49 26.048 13.352 26.324L6.17604 27.98C5.48604 28.118 5.07204 28.67 5.07204 29.36V37.916C5.07204 38.606 5.48604 39.158 6.17604 39.296L13.49 40.952C13.628 41.504 13.904 42.056 14.18 42.608L10.316 48.956C10.04 49.508 10.04 50.198 10.454 50.612L16.526 56.684C16.94 57.098 17.63 57.236 18.182 56.822L24.53 52.958C25.082 53.234 25.634 53.372 26.186 53.648L27.842 60.824C27.98 61.514 28.532 61.928 29.222 61.928H37.778C38.468 61.928 39.02 61.514 39.158 60.824L40.952 53.51C41.228 53.372 41.366 53.372 41.642 53.234C41.642 53.51 41.642 53.786 41.642 54.062C41.642 57.512 42.884 60.686 45.368 63.032C47.714 65.378 50.888 66.758 54.2 66.758C55.58 66.758 56.96 66.482 58.34 66.068C58.754 65.93 59.168 65.516 59.306 65.102C59.444 64.688 59.306 64.136 58.892 63.86L53.372 58.34L58.34 53.372L63.584 58.616C63.86 58.892 64.412 59.03 64.826 59.03C65.24 58.892 65.654 58.616 65.792 58.064C67.31 53.51 66.206 48.542 62.756 45.23C60.548 42.884 57.512 41.504 54.062 41.504ZM27.704 15.836C28.118 15.698 28.532 15.284 28.67 14.87L30.326 7.97004H36.674L38.33 14.87C38.468 15.284 38.744 15.698 39.296 15.836C40.262 16.112 41.09 16.526 42.056 16.94C42.47 17.216 43.022 17.078 43.436 16.94L49.508 13.214L54.062 17.768L50.06 23.564C49.784 23.978 49.784 24.53 50.06 24.944C50.474 25.772 50.888 26.6 51.164 27.566C51.302 27.98 51.716 28.394 52.13 28.532L59.03 30.188V36.536L52.13 38.192C51.716 38.33 51.302 38.606 51.164 39.158C50.888 39.848 50.612 40.538 50.474 41.09L46.196 36.812C47.3 32.396 46.058 27.566 42.746 24.254C39.434 20.942 34.742 19.7 30.326 20.804L26.048 16.526C26.462 16.25 27.014 15.974 27.704 15.836ZM43.85 34.328L32.672 23.15C35.708 22.874 38.606 23.978 40.814 26.186C43.022 28.394 43.988 31.292 43.85 34.328ZM39.296 51.164C39.158 51.164 38.882 51.302 38.744 51.44C38.606 51.578 38.468 51.854 38.33 52.13L36.674 59.03H30.326L28.67 52.13C28.532 51.716 28.256 51.302 27.704 51.164C26.738 50.888 25.91 50.474 24.944 50.06C24.53 49.784 23.978 49.922 23.564 50.06L17.492 53.786L12.938 49.232L16.664 43.298C16.94 42.884 16.94 42.332 16.664 41.918C16.25 40.952 15.836 40.124 15.56 39.296C15.422 38.882 15.008 38.468 14.594 38.33L7.69404 36.674V30.188L14.594 28.532C15.008 28.394 15.422 28.118 15.56 27.566C15.698 26.876 15.974 26.324 16.25 25.634L20.528 29.912C19.424 34.328 20.666 39.158 23.978 42.332C26.462 44.816 29.774 46.196 33.224 46.196C34.328 46.196 35.432 46.058 36.536 45.782L40.814 50.06C40.538 50.75 39.986 50.888 39.296 51.164ZM23.15 32.672L34.328 43.85C31.292 44.126 28.394 43.022 26.186 40.814C23.978 38.606 23.012 35.708 23.15 32.672ZM63.86 54.89L59.444 50.474C58.892 49.922 58.064 49.922 57.512 50.474L50.612 57.374C50.198 57.65 50.06 58.064 50.06 58.34C50.06 58.616 50.198 59.03 50.474 59.306L54.89 63.722C51.992 63.998 49.232 63.032 47.162 60.824C45.368 59.03 44.264 56.546 44.264 53.786C44.264 52.82 44.402 51.992 44.678 51.026C44.816 50.474 44.678 50.06 44.402 49.646C30.74 36.26 22.874 28.394 17.078 22.598C16.664 22.184 16.25 22.046 15.698 22.322C14.87 22.598 13.904 22.736 12.938 22.736C10.316 22.736 7.83204 21.77 6.03804 19.838C3.96804 17.768 2.86404 14.87 3.14004 12.11L7.55604 16.526C8.10804 17.078 8.93604 17.078 9.48804 16.526L16.388 9.62604C16.802 9.35004 16.94 8.93604 16.94 8.66004C16.94 8.38404 16.802 7.97004 16.526 7.69404L12.11 3.14004C15.008 2.86404 17.768 3.83004 19.838 6.03804C21.77 7.97004 22.736 10.316 22.736 13.076C22.736 14.042 22.598 15.008 22.322 15.836C22.184 16.388 22.322 16.802 22.736 17.216L50.06 44.54L50.198 44.678C51.026 45.368 51.854 44.816 52.544 44.678C55.58 44.126 58.892 45.092 61.238 47.438C63.032 49.232 64.136 52.13 63.86 54.89Z" fill="#37425D"/>
</svg>
