<svg width="53" height="53" viewBox="0 0 53 53" fill="none" xmlns="http://www.w3.org/2000/svg">
<path d="M35.1125 19.2125C35.1125 14.7658 33.2754 10.7418 30.3226 7.85394C30.3147 7.84334 30.3114 7.83075 30.3028 7.82081C30.2888 7.80756 30.2696 7.8016 30.2557 7.78901C27.393 5.02175 23.4989 3.3125 19.2125 3.3125C14.9301 3.3125 11.0406 5.01778 8.17856 7.7804C8.16068 7.79564 8.13881 7.80226 8.12225 7.81949C8.11099 7.83075 8.10701 7.84599 8.09708 7.85858C5.14763 10.7471 3.3125 14.7685 3.3125 19.2125C3.3125 23.6566 5.14763 27.6786 8.09708 30.5664C8.10701 30.579 8.11033 30.5943 8.12225 30.6062C8.13815 30.6221 8.16001 30.6287 8.17724 30.6433C11.0392 33.4072 14.9294 35.1125 19.2125 35.1125C23.4989 35.1125 27.393 33.4039 30.2557 30.636C30.2703 30.6227 30.2888 30.6181 30.3021 30.6035C30.3114 30.5943 30.3147 30.5817 30.3233 30.5711C33.2754 27.6826 35.1125 23.6592 35.1125 19.2125ZM29.788 29.2262C28.7156 28.2642 27.5171 27.4527 26.2257 26.814C26.7769 24.7477 27.1049 22.3952 27.1546 19.875H33.7709C33.608 23.4889 32.122 26.7624 29.788 29.2262ZM4.65406 19.875H11.2704C11.3201 22.3952 11.6481 24.7477 12.1993 26.814C10.9079 27.4524 9.70948 28.2637 8.63701 29.2255C6.30302 26.763 4.81638 23.4896 4.65406 19.875ZM8.63701 9.19881C9.70944 10.1608 10.9079 10.9723 12.1993 11.611C11.6481 13.6773 11.3201 16.0299 11.2704 18.55H4.65406C4.81704 14.9361 6.30302 11.6627 8.63701 9.19881ZM33.7709 18.55H27.1546C27.1049 16.0299 26.7769 13.6773 26.2257 11.611C27.5171 10.9725 28.7155 10.1612 29.788 9.19947C32.122 11.6627 33.608 14.9361 33.7709 18.55ZM18.55 11.8932C16.9265 11.8263 15.3258 11.4875 13.8144 10.8908C14.9036 7.5207 16.6188 5.15822 18.55 4.71369V11.8932ZM18.55 13.2182V18.55H12.5954C12.6445 16.2571 12.9492 14.0834 13.4448 12.1642C15.0767 12.7949 16.8017 13.1511 18.55 13.2182ZM18.55 19.875V25.2068C16.7811 25.2797 15.06 25.6321 13.4448 26.2602C12.9492 24.3416 12.6445 22.1679 12.5954 19.875H18.55ZM18.55 26.5318V33.7113C16.6188 33.2668 14.9036 30.9043 13.8144 27.5342C15.3258 26.9375 16.9265 26.5987 18.55 26.5318ZM19.875 26.5318C21.5173 26.6053 23.1146 26.9379 24.6105 27.5342C23.5214 30.9043 21.8062 33.2668 19.875 33.7113V26.5318ZM19.875 25.2068V19.875H25.8296C25.7805 22.1679 25.4758 24.3416 24.9802 26.2608C23.3483 25.6301 21.6233 25.2739 19.875 25.2068ZM19.875 18.55V13.2182C21.6233 13.1511 23.3483 12.7949 24.9802 12.1642C25.4758 14.0834 25.7805 16.2571 25.8296 18.55H19.875ZM19.875 11.8932V4.71369C21.8062 5.15822 23.5214 7.5207 24.6105 10.8908C23.1146 11.4871 21.5173 11.8197 19.875 11.8932ZM25.8435 10.3297C25.118 8.14146 24.1269 6.35139 22.955 5.12709C25.1316 5.70808 27.1437 6.78645 28.8327 8.27728C27.9257 9.08327 26.9215 9.77275 25.8435 10.3297ZM12.5815 10.3297C11.5035 9.77279 10.4993 9.08331 9.59234 8.27728C11.2813 6.78645 13.2934 5.70808 15.47 5.12709C14.2981 6.35139 13.307 8.14146 12.5815 10.3297ZM12.5815 28.0953C13.307 30.2835 14.2981 32.0736 15.47 33.2979C13.2934 32.7169 11.2813 31.6386 9.59234 30.1477C10.4993 29.3417 11.5035 28.6522 12.5815 28.0953ZM25.8435 28.0953C26.9215 28.6522 27.9257 29.3417 28.8327 30.1477C27.1437 31.6386 25.1316 32.7169 22.955 33.2979C24.1269 32.0736 25.118 30.2835 25.8435 28.0953ZM41.075 40.4125C43.6323 40.4125 45.7125 38.3323 45.7125 35.775C45.7125 33.2178 43.6323 31.1375 41.075 31.1375C38.5178 31.1375 36.4375 33.2178 36.4375 35.775C36.4375 38.3323 38.5178 40.4125 41.075 40.4125ZM41.075 32.4625C42.9015 32.4625 44.3875 33.9485 44.3875 35.775C44.3875 37.6015 42.9015 39.0875 41.075 39.0875C39.2485 39.0875 37.7625 37.6015 37.7625 35.775C37.7625 33.9485 39.2485 32.4625 41.075 32.4625ZM45.05 41.075H37.1C34.5428 41.075 32.4625 43.1553 32.4625 45.7125V49.025C32.4625 49.2007 32.5323 49.3692 32.6565 49.4935C32.7808 49.6177 32.9493 49.6875 33.125 49.6875H49.025C49.2007 49.6875 49.3692 49.6177 49.4935 49.4935C49.6177 49.3692 49.6875 49.2007 49.6875 49.025V45.7125C49.6875 43.1553 47.6073 41.075 45.05 41.075ZM48.3625 48.3625H33.7875V45.7125C33.7875 43.886 35.2735 42.4 37.1 42.4H45.05C46.8765 42.4 48.3625 43.886 48.3625 45.7125V48.3625ZM19.2125 36.4375C19.0368 36.4375 18.8683 36.5073 18.744 36.6315C18.6198 36.7558 18.55 36.9243 18.55 37.1V44.3875C18.55 44.5632 18.6198 44.7317 18.744 44.856C18.8683 44.9802 19.0368 45.05 19.2125 45.05H26.8882L26.1456 45.7927C26.0823 45.8538 26.0318 45.9269 25.9971 46.0077C25.9624 46.0885 25.9441 46.1755 25.9433 46.2634C25.9426 46.3514 25.9593 46.4386 25.9926 46.5201C26.026 46.6015 26.0751 46.6754 26.1374 46.7376C26.1996 46.7999 26.2735 46.849 26.3549 46.8824C26.4364 46.9157 26.5236 46.9324 26.6116 46.9317C26.6995 46.9309 26.7865 46.9126 26.8673 46.8779C26.9481 46.8432 27.0212 46.7927 27.0823 46.7294L28.9552 44.8566C29.0169 44.795 29.0659 44.7219 29.0993 44.6414C29.1327 44.5609 29.1499 44.4746 29.1499 44.3875C29.1499 44.3004 29.1327 44.2141 29.0993 44.1336C29.0659 44.0531 29.0169 43.98 28.9552 43.9185L27.0823 42.0456C27.0212 41.9823 26.9481 41.9318 26.8673 41.8971C26.7865 41.8624 26.6995 41.8441 26.6116 41.8433C26.5236 41.8426 26.4364 41.8593 26.3549 41.8926C26.2735 41.926 26.1996 41.9751 26.1374 42.0374C26.0751 42.0996 26.026 42.1735 25.9926 42.2549C25.9593 42.3364 25.9426 42.4236 25.9433 42.5116C25.9441 42.5995 25.9624 42.6865 25.9971 42.7673C26.0318 42.8481 26.0823 42.9212 26.1456 42.9823L26.8876 43.725H19.875V37.1C19.875 36.9243 19.8052 36.7558 19.681 36.6315C19.5567 36.5073 19.3882 36.4375 19.2125 36.4375ZM40.1044 20.0691C39.9802 19.9449 39.8117 19.8751 39.6361 19.8751C39.4604 19.8751 39.2919 19.9449 39.1677 20.0691L37.2948 21.942C37.2019 22.0346 37.1387 22.1526 37.1131 22.2812C37.0875 22.4098 37.1007 22.5431 37.151 22.6641C37.1841 22.7456 37.2332 22.8192 37.2948 22.8801L39.1677 24.7536C39.229 24.8154 39.302 24.8644 39.3824 24.8978C39.4628 24.9312 39.549 24.9484 39.6361 24.9484C39.7231 24.9484 39.8093 24.9312 39.8897 24.8978C39.9701 24.8644 40.0431 24.8154 40.1044 24.7536C40.2286 24.6294 40.2984 24.4609 40.2984 24.2853C40.2984 24.1096 40.2286 23.9411 40.1044 23.8169L39.3618 23.0736H46.375V29.6986C46.375 29.8743 46.4448 30.0428 46.569 30.167C46.6933 30.2913 46.8618 30.3611 47.0375 30.3611C47.2132 30.3611 47.3817 30.2913 47.506 30.167C47.6302 30.0428 47.7 29.8743 47.7 29.6986V22.4111C47.7 22.2353 47.6302 22.0668 47.506 21.9426C47.3817 21.8183 47.2132 21.7486 47.0375 21.7486H39.3618L40.1044 21.0059C40.2286 20.8817 40.2984 20.7132 40.2984 20.5375C40.2984 20.3618 40.2286 20.1933 40.1044 20.0691Z" fill="#37425D"/>
</svg>
