<svg width="48" height="44" viewBox="0 0 48 44" fill="none" xmlns="http://www.w3.org/2000/svg">
<path fill-rule="evenodd" clip-rule="evenodd" d="M34.9679 17.6117C34.6096 17.8189 34.1936 17.9376 33.75 17.9376C33.3064 17.9376 32.8904 17.8189 32.5321 17.6117C32.1437 17.3867 31.6464 17.5191 31.4222 17.9075C31.1971 18.2959 31.3295 18.7931 31.7179 19.0182C32.3159 19.3643 33.0098 19.5626 33.75 19.5626C34.4902 19.5626 35.1841 19.3643 35.7821 19.0182C36.1704 18.7931 36.3029 18.2959 36.0778 17.9075C35.8536 17.5191 35.3563 17.3867 34.9679 17.6117Z" fill="#37425D"/>
<path fill-rule="evenodd" clip-rule="evenodd" d="M15.4679 17.6117C15.1096 17.8189 14.6936 17.9376 14.25 17.9376C13.8064 17.9376 13.3904 17.8189 13.0321 17.6117C12.6437 17.3867 12.1464 17.5191 11.9222 17.9075C11.6971 18.2959 11.8295 18.7931 12.2179 19.0182C12.8159 19.3643 13.5098 19.5626 14.25 19.5626C14.9902 19.5626 15.6841 19.3643 16.2821 19.0182C16.6704 18.7931 16.8029 18.2959 16.5778 17.9075C16.3536 17.5191 15.8563 17.3867 15.4679 17.6117Z" fill="#37425D"/>
<path fill-rule="evenodd" clip-rule="evenodd" d="M39.3798 26.0625H40.25C43.3911 26.0625 45.9375 28.6089 45.9375 31.75V35.8125H41.0625V33.375C41.0625 32.9265 40.6985 32.5625 40.25 32.5625C39.8015 32.5625 39.4375 32.9265 39.4375 33.375V42.3125H30.5C30.0515 42.3125 29.6875 42.6765 29.6875 43.125C29.6875 43.5735 30.0515 43.9375 30.5 43.9375H43.5C45.7433 43.9375 47.5625 42.1183 47.5625 39.875V31.75C47.5625 27.7111 44.2889 24.4375 40.25 24.4375C40.25 24.4375 37.8125 24.4375 37 24.4375C36.5515 24.4375 36.1875 24.0735 36.1875 23.625V22.3965C38.8062 21.4719 40.7399 19.0977 41.0259 16.2377C41.8149 16.0842 42.5461 15.6991 43.123 15.123C43.8843 14.3609 44.3125 13.3274 44.3125 12.25C44.3125 12.0639 44.3125 11.4619 44.3125 10.625C44.3125 7.8235 43.1994 5.13739 41.2185 3.15651C39.2376 1.17564 36.5515 0.0625 33.75 0.0625H33.7468C30.9461 0.0625 28.2607 1.17481 26.2799 3.15487C25.3041 4.1315 24.5387 5.27957 24.013 6.52838C22.4343 2.73157 18.6903 0.0625 14.3231 0.0625H14.3215C8.44876 0.0625 3.6875 4.82376 3.6875 10.6965C3.6875 15.2652 3.6875 18.7662 3.6875 22C3.6875 23.0774 4.11568 24.1109 4.87699 24.873C4.91355 24.9088 4.94931 24.9437 4.98669 24.9778C2.31844 26.0674 0.4375 28.6893 0.4375 31.75V39.875C0.4375 42.1183 2.25669 43.9375 4.5 43.9375H24C26.2433 43.9375 28.0625 42.1183 28.0625 39.875V31.75C28.0625 29.5839 27.12 27.6371 25.6234 26.2981C26.1393 26.1446 26.6845 26.0625 27.25 26.0625H28.1202C28.5151 28.8177 30.8868 30.9375 33.75 30.9375C36.6132 30.9375 38.9849 28.8177 39.3798 26.0625ZM41.0625 42.3125H43.5C44.8463 42.3125 45.9375 41.2213 45.9375 39.875V37.4375H41.0625V42.3125ZM2.0625 37.4375V39.875C2.0625 41.2213 3.15369 42.3125 4.5 42.3125H6.9375V37.4375H2.0625ZM26.4375 35.8125V31.75C26.4375 28.6089 23.8911 26.0625 20.75 26.0625H19.8798C19.4849 28.8177 17.1132 30.9375 14.25 30.9375C11.3868 30.9375 9.01507 28.8177 8.6202 26.0625H7.75C4.60888 26.0625 2.0625 28.6089 2.0625 31.75V35.8125H6.9375V33.375C6.9375 32.9265 7.3015 32.5625 7.75 32.5625C8.1985 32.5625 8.5625 32.9265 8.5625 33.375V42.3125H19.9375V33.375C19.9375 32.9265 20.3015 32.5625 20.75 32.5625C21.1985 32.5625 21.5625 32.9265 21.5625 33.375V35.8125H26.4375ZM21.5625 42.3125H24C25.3463 42.3125 26.4375 41.2213 26.4375 39.875V37.4375H21.5625V42.3125ZM32.9375 22.767V23.625C32.9375 24.9713 31.8463 26.0625 30.5 26.0625H29.7688C30.1458 27.9158 31.7862 29.3125 33.75 29.3125C35.7138 29.3125 37.3542 27.9158 37.7312 26.0625H37C35.6537 26.0625 34.5625 24.9713 34.5625 23.625V22.7678C34.2968 22.7971 34.0254 22.8125 33.7516 22.8125H33.75C33.477 22.8125 33.2056 22.7971 32.9375 22.767ZM13.4375 22.767V23.625C13.4375 24.9713 12.3463 26.0625 11 26.0625H10.2688C10.6458 27.9158 12.2862 29.3125 14.25 29.3125C16.2138 29.3125 17.8542 27.9158 18.2312 26.0625H17.5C16.1537 26.0625 15.0625 24.9713 15.0625 23.625V22.7678C14.7968 22.7971 14.5254 22.8125 14.2516 22.8125H14.25C13.977 22.8125 13.7056 22.7971 13.4375 22.767ZM24.8125 15.5V22C24.8125 23.0774 24.3843 24.1109 23.623 24.873C23.5864 24.9088 23.5507 24.9437 23.5133 24.9778C23.6791 25.0453 23.8416 25.1184 24 25.198C24.9791 24.7113 26.0824 24.4375 27.25 24.4375H30.5C30.9485 24.4375 31.3125 24.0735 31.3125 23.625V22.3941C30.2936 22.0341 29.3576 21.4491 28.5792 20.6708C27.3832 19.4748 26.6439 17.9058 26.4749 16.2377C25.8728 16.1207 25.3041 15.8689 24.8125 15.5ZM17.5 24.4375H20.75C21.3968 24.4375 22.0167 24.1808 22.4733 23.7233C22.9308 23.2667 23.1875 22.6468 23.1875 22C23.1875 18.7321 23.1875 15.1563 23.1875 10.5519C23.1875 5.65657 19.2184 1.6875 14.3231 1.6875H14.3215C9.34576 1.6875 5.3125 5.72076 5.3125 10.6965C5.3125 15.2652 5.3125 18.7662 5.3125 22C5.3125 22.6468 5.56925 23.2667 6.02669 23.7233C6.48331 24.1808 7.10325 24.4375 7.75 24.4375H11C11.4485 24.4375 11.8125 24.0735 11.8125 23.625V22.3941C10.7936 22.0341 9.85761 21.4491 9.07924 20.6708C7.70774 19.2993 6.9375 17.4394 6.9375 15.5C6.9375 14.1261 6.9375 13.043 6.9375 12.25C6.9375 11.6032 7.19425 10.9833 7.65169 10.5267C8.10831 10.0692 8.72825 9.8125 9.375 9.8125H10.6165C11.5395 9.8125 12.3837 9.29088 12.7964 8.46538L13.5236 7.01182C13.6609 6.73638 13.9421 6.5625 14.25 6.5625C14.5579 6.5625 14.8391 6.73638 14.9764 7.01182L15.7036 8.46538C16.1163 9.29088 16.9605 9.8125 17.8835 9.8125H19.125C19.7718 9.8125 20.3917 10.0692 20.8483 10.5267C21.3058 10.9833 21.5625 11.6032 21.5625 12.25C21.5625 13.0438 21.5625 14.1277 21.5625 15.5016C21.5625 18.685 19.5272 21.3939 16.6875 22.3965V23.625C16.6875 24.0735 17.0515 24.4375 17.5 24.4375ZM33.75 21.1875H33.7516C36.8919 21.1875 39.4375 18.6419 39.4375 15.5016V12.25C39.4375 12.0347 39.3522 11.8275 39.1994 11.6756C39.0475 11.5228 38.8403 11.4375 38.625 11.4375H37.3835C35.8446 11.4375 34.4382 10.5681 33.75 9.19174C33.0618 10.5681 31.6554 11.4375 30.1165 11.4375H28.875C28.6597 11.4375 28.4525 11.5228 28.3006 11.6756C28.1478 11.8275 28.0625 12.0347 28.0625 12.25V15.5C28.0625 17.0088 28.6613 18.4551 29.7281 19.5219C30.7949 20.5887 32.2412 21.1875 33.75 21.1875ZM14.25 21.1875H14.2516C17.3919 21.1875 19.9375 18.6419 19.9375 15.5016V12.25C19.9375 12.0347 19.8522 11.8275 19.6994 11.6756C19.5475 11.5228 19.3403 11.4375 19.125 11.4375H17.8835C16.3446 11.4375 14.9382 10.5681 14.25 9.19174C13.5618 10.5681 12.1554 11.4375 10.6165 11.4375H9.375C9.15969 11.4375 8.9525 11.5228 8.80056 11.6756C8.64781 11.8275 8.5625 12.0347 8.5625 12.25V15.5C8.5625 17.0088 9.1613 18.4551 10.2281 19.5219C11.2949 20.5887 12.7412 21.1875 14.25 21.1875ZM41.0625 14.5478C41.4021 14.4283 41.7141 14.2333 41.9733 13.9733C42.4308 13.5167 42.6875 12.8968 42.6875 12.25V10.625C42.6875 8.25494 41.7458 5.98155 40.0696 4.30536C38.3934 2.62918 36.1201 1.6875 33.75 1.6875H33.7468C31.3775 1.6875 29.1049 2.62919 27.4296 4.30457C25.7542 5.97994 24.8125 8.2525 24.8125 10.6218C24.8125 10.6218 24.8125 11.3538 24.8125 12.25C24.8125 12.8968 25.0692 13.5167 25.5267 13.9733C25.7859 14.2333 26.0979 14.4283 26.4375 14.5478V12.25C26.4375 11.6032 26.6942 10.9833 27.1517 10.5267C27.6083 10.0692 28.2282 9.8125 28.875 9.8125H30.1165C31.0395 9.8125 31.8837 9.29088 32.2964 8.46538L33.0236 7.01182C33.1609 6.73638 33.4421 6.5625 33.75 6.5625C34.0579 6.5625 34.3391 6.73638 34.4764 7.01182L35.2036 8.46538C35.6163 9.29088 36.4605 9.8125 37.3835 9.8125H38.625C39.2718 9.8125 39.8917 10.0692 40.3483 10.5267C40.8058 10.9833 41.0625 11.6032 41.0625 12.25V14.5478Z" fill="#37425D"/>
</svg>
