<svg width="84" height="60" viewBox="0 0 84 60" fill="none" xmlns="http://www.w3.org/2000/svg">
<path d="M56.1818 26.1429C62.0673 26.1429 66.7827 20.9743 66.7827 14.5714C66.7827 8.16857 62.0673 3 56.1818 3C50.2964 3 45.5455 8.16857 45.5455 14.5714C45.5455 20.9743 50.2964 26.1429 56.1818 26.1429ZM27.8182 26.1429C33.7036 26.1429 38.4191 20.9743 38.4191 14.5714C38.4191 8.16857 33.7036 3 27.8182 3C21.9327 3 17.1818 8.16857 17.1818 14.5714C17.1818 20.9743 21.9327 26.1429 27.8182 26.1429ZM27.8182 33.8571C19.5573 33.8571 3 38.37 3 47.3571V53.1429C3 55.2643 4.59545 57 6.54545 57H49.0909C51.0409 57 52.6364 55.2643 52.6364 53.1429V47.3571C52.6364 38.37 36.0791 33.8571 27.8182 33.8571ZM56.1818 33.8571C55.1536 33.8571 53.9836 33.9343 52.7427 34.05C52.8136 34.0886 52.8491 34.1657 52.8845 34.2043C56.9264 37.4057 59.7273 41.6871 59.7273 47.3571V53.1429C59.7273 54.4929 59.4791 55.8043 59.0891 57H77.4545C79.4045 57 81 55.2643 81 53.1429V47.3571C81 38.37 64.4427 33.8571 56.1818 33.8571Z" stroke="#37425D" stroke-width="6"/>
</svg>
