<svg width="35" height="39" viewBox="0 0 35 39" fill="none" xmlns="http://www.w3.org/2000/svg">
<path d="M2.5 34.125H5V36.5625C5 37.209 5.26339 37.829 5.73223 38.2861C6.20107 38.7432 6.83696 39 7.5 39H32.5C33.163 39 33.7989 38.7432 34.2678 38.2861C34.7366 37.829 35 37.209 35 36.5625V7.3125C35 6.66603 34.7366 6.04605 34.2678 5.58893C33.7989 5.13181 33.163 4.875 32.5 4.875H30V2.4375C30 1.79103 29.7366 1.17105 29.2678 0.713927C28.7989 0.256807 28.163 0 27.5 0L2.5 0C1.83696 0 1.20107 0.256807 0.732233 0.713927C0.263392 1.17105 0 1.79103 0 2.4375V31.6875C0 32.334 0.263392 32.954 0.732233 33.4111C1.20107 33.8682 1.83696 34.125 2.5 34.125ZM27.5 31.6875H2.5V2.4375H27.5V31.6875ZM32.5 7.3125V36.5625H7.5V34.125H27.5C28.163 34.125 28.7989 33.8682 29.2678 33.4111C29.7366 32.954 30 32.334 30 31.6875V7.3125H32.5ZM10 8.53125C10 8.85448 10.1317 9.16448 10.3661 9.39304C10.6005 9.6216 10.9185 9.75 11.25 9.75H23.75C24.0815 9.75 24.3995 9.6216 24.6339 9.39304C24.8683 9.16448 25 8.85448 25 8.53125C25 8.20802 24.8683 7.89802 24.6339 7.66946C24.3995 7.4409 24.0815 7.3125 23.75 7.3125H11.25C10.9185 7.3125 10.6005 7.4409 10.3661 7.66946C10.1317 7.89802 10 8.20802 10 8.53125ZM6.25 17.0625H23.75C24.0815 17.0625 24.3995 16.9341 24.6339 16.7055C24.8683 16.477 25 16.167 25 15.8438C25 15.5205 24.8683 15.2105 24.6339 14.982C24.3995 14.7534 24.0815 14.625 23.75 14.625H6.25C5.91848 14.625 5.60054 14.7534 5.36612 14.982C5.1317 15.2105 5 15.5205 5 15.8438C5 16.167 5.1317 16.477 5.36612 16.7055C5.60054 16.9341 5.91848 17.0625 6.25 17.0625ZM6.25 21.9375H23.75C24.0815 21.9375 24.3995 21.8091 24.6339 21.5805C24.8683 21.352 25 21.042 25 20.7188C25 20.3955 24.8683 20.0855 24.6339 19.857C24.3995 19.6284 24.0815 19.5 23.75 19.5H6.25C5.91848 19.5 5.60054 19.6284 5.36612 19.857C5.1317 20.0855 5 20.3955 5 20.7188C5 21.042 5.1317 21.352 5.36612 21.5805C5.60054 21.8091 5.91848 21.9375 6.25 21.9375ZM6.25 26.8125H23.75C24.0815 26.8125 24.3995 26.6841 24.6339 26.4555C24.8683 26.227 25 25.917 25 25.5938C25 25.2705 24.8683 24.9605 24.6339 24.732C24.3995 24.5034 24.0815 24.375 23.75 24.375H6.25C5.91848 24.375 5.60054 24.5034 5.36612 24.732C5.1317 24.9605 5 25.2705 5 25.5938C5 25.917 5.1317 26.227 5.36612 26.4555C5.60054 26.6841 5.91848 26.8125 6.25 26.8125Z" fill="#37425D"/>
</svg>
