<svg width="47" height="47" viewBox="0 0 47 47" fill="none" xmlns="http://www.w3.org/2000/svg">
<path d="M38.5781 3H11.4062C10.2376 3 9.11689 3.46423 8.29056 4.29056C7.46423 5.11689 7 6.23764 7 7.40625V40.4531C7.03812 41.4441 7.46023 42.3813 8.17704 43.0666C8.89385 43.7519 9.84912 44.1315 10.8408 44.125H24.625C24.8198 44.125 25.0066 44.0476 25.1443 43.9099C25.282 43.7722 25.3594 43.5854 25.3594 43.3906C25.3594 43.1959 25.282 43.0091 25.1443 42.8713C25.0066 42.7336 24.8198 42.6563 24.625 42.6563H10.8408C10.2373 42.6667 9.65328 42.4431 9.21107 42.0324C8.76885 41.6217 8.50282 41.0557 8.46875 40.4531V40.2548C8.47913 40.1054 8.50623 39.9576 8.54953 39.8142C8.57493 39.7393 8.60434 39.6657 8.63766 39.5939C8.63766 39.5352 8.68906 39.4764 8.71109 39.425C8.81736 39.2367 8.94555 39.0617 9.09297 38.9036C9.29936 38.695 9.54534 38.5297 9.81647 38.4175C10.0876 38.3052 10.3784 38.2483 10.6719 38.25H38.5781C38.7164 38.2503 38.8543 38.2355 38.9894 38.2059H39.1216L39.3125 38.1545V38.9844C39.3125 39.1791 39.3906 39.5625 39.3906 39.5625C39.2529 39.7002 39.0854 40.0625 38.8906 40.0625H37.8906C35.3906 40.0625 33.3906 40.0625 36.3906 40.0625C50.3906 40.0625 23.5 40 21.8906 40.5625C21.8906 40.5625 21.5 41 21.8906 41.0625C22.2812 41.125 39.077 41.1408 39.3125 41.0553V41.9219C39.3125 42.1166 39.2351 42.3034 39.0974 42.4412C38.9597 42.5789 38.7729 42.6563 38.5781 42.6563H31.2344C31.0396 42.6563 30.8528 42.7336 30.7151 42.8713C30.5774 43.0091 30.5 43.1959 30.5 43.3906C30.5 43.5854 30.5774 43.7722 30.7151 43.9099C30.8528 44.0476 31.0396 44.125 31.2344 44.125H38.5781C39.1624 44.125 39.7228 43.8929 40.136 43.4797C40.5491 43.0666 40.7812 42.5062 40.7812 41.9219V5.20313C40.7812 4.61882 40.5491 4.05845 40.136 3.64528C39.7228 3.23211 39.1624 3 38.5781 3ZM10.0109 36.8473L9.80531 36.8988C9.65799 36.9327 9.51321 36.9769 9.37203 37.0309C9.29859 37.0309 9.22516 37.0897 9.15172 37.1191C9.02064 37.1803 8.89314 37.249 8.76984 37.3247L8.57156 37.4495L8.46875 37.5156V7.40625C8.46875 6.62718 8.77824 5.88001 9.32912 5.32912C9.88001 4.77824 10.6272 4.46875 11.4062 4.46875V36.7813H10.6719C10.4499 36.7807 10.2284 36.8028 10.0109 36.8473ZM12.875 36.7813V4.46875H38.5781C38.7729 4.46875 38.9597 4.54612 39.0974 4.68384C39.2351 4.82157 39.3125 5.00836 39.3125 5.20313V36.0469C39.3125 36.2416 39.2351 36.4284 39.0974 36.5662C38.9597 36.7039 38.7729 36.7813 38.5781 36.7813H12.875Z" fill="#37425D" stroke="#37425D" stroke-width="0.5"/>
<path d="M33.7812 10.2812H17.625C17.4302 10.2812 17.2434 10.3586 17.1057 10.4963C16.968 10.6341 16.8906 10.8209 16.8906 11.0156V16.1562C16.8906 16.351 16.968 16.5378 17.1057 16.6755C17.2434 16.8133 17.4302 16.8906 17.625 16.8906H33.7812C33.976 16.8906 34.1628 16.8133 34.3005 16.6755C34.4383 16.5378 34.5156 16.351 34.5156 16.1562V11.0156C34.5156 10.8209 34.4383 10.6341 34.3005 10.4963C34.1628 10.3586 33.976 10.2812 33.7812 10.2812ZM33.0469 15.4219H18.3594V11.75H33.0469V15.4219ZM32.3125 31.5781H19.0938C18.899 31.5781 18.7122 31.6555 18.5745 31.7932C18.4367 31.9309 18.3594 32.1177 18.3594 32.3125C18.3594 32.5073 18.4367 32.6941 18.5745 32.8318C18.7122 32.9695 18.899 33.0469 19.0938 33.0469H32.3125C32.5073 33.0469 32.6941 32.9695 32.8318 32.8318C32.9695 32.6941 33.0469 32.5073 33.0469 32.3125C33.0469 32.1177 32.9695 31.9309 32.8318 31.7932C32.6941 31.6555 32.5073 31.5781 32.3125 31.5781ZM27.9062 42.5938H27.1719C26.9771 42.5938 26.7903 42.6711 26.6526 42.8088C26.5149 42.9466 26.4375 43.1334 26.4375 43.3281C26.4375 43.5229 26.5149 43.7097 26.6526 43.8474C26.7903 43.9851 26.9771 44.0625 27.1719 44.0625H27.9062C28.101 44.0625 28.2878 43.9851 28.4255 43.8474C28.5633 43.7097 28.6406 43.5229 28.6406 43.3281C28.6406 43.1334 28.5633 42.9466 28.4255 42.8088C28.2878 42.6711 28.101 42.5938 27.9062 42.5938Z" fill="#37425D"/>
<path d="M33.7812 10.2812H17.625C17.4302 10.2812 17.2434 10.3586 17.1057 10.4963C16.968 10.6341 16.8906 10.8209 16.8906 11.0156V16.1562C16.8906 16.351 16.968 16.5378 17.1057 16.6755C17.2434 16.8133 17.4302 16.8906 17.625 16.8906H33.7812C33.976 16.8906 34.1628 16.8133 34.3005 16.6755C34.4383 16.5378 34.5156 16.351 34.5156 16.1562V11.0156C34.5156 10.8209 34.4383 10.6341 34.3005 10.4963C34.1628 10.3586 33.976 10.2812 33.7812 10.2812ZM33.0469 15.4219H18.3594V11.75H33.0469V15.4219ZM32.3125 31.5781H19.0938C18.899 31.5781 18.7122 31.6555 18.5745 31.7932C18.4367 31.9309 18.3594 32.1177 18.3594 32.3125C18.3594 32.5073 18.4367 32.6941 18.5745 32.8318C18.7122 32.9695 18.899 33.0469 19.0938 33.0469H32.3125C32.5073 33.0469 32.6941 32.9695 32.8318 32.8318C32.9695 32.6941 33.0469 32.5073 33.0469 32.3125C33.0469 32.1177 32.9695 31.9309 32.8318 31.7932C32.6941 31.6555 32.5073 31.5781 32.3125 31.5781ZM27.9062 42.5938H27.1719C26.9771 42.5938 26.7903 42.6711 26.6526 42.8088C26.5149 42.9466 26.4375 43.1334 26.4375 43.3281C26.4375 43.5229 26.5149 43.7097 26.6526 43.8474C26.7903 43.9851 26.9771 44.0625 27.1719 44.0625H27.9062C28.101 44.0625 28.2878 43.9851 28.4255 43.8474C28.5633 43.7097 28.6406 43.5229 28.6406 43.3281C28.6406 43.1334 28.5633 42.9466 28.4255 42.8088C28.2878 42.6711 28.101 42.5938 27.9062 42.5938Z" fill="#37425D"/>
<path d="M27.1719 42.5938H27.9062C28.101 42.5938 28.2878 42.6711 28.4255 42.8088C28.5633 42.9466 28.6406 43.1334 28.6406 43.3281C28.6406 43.5229 28.5633 43.7097 28.4255 43.8474C28.2878 43.9851 28.101 44.0625 27.9062 44.0625H27.1719C26.9771 44.0625 26.7903 43.9851 26.6526 43.8474C26.5149 43.7097 26.4375 43.5229 26.4375 43.3281C26.4375 43.1334 26.5149 42.9466 26.6526 42.8088C26.7903 42.6711 26.9771 42.5938 27.1719 42.5938Z" fill="#37425D"/>
<path d="M28.1719 42.5938H28.9062C29.101 42.5938 29.2878 42.6711 29.4255 42.8088C29.5633 42.9466 29.6406 43.1334 29.6406 43.3281C29.6406 43.5229 29.5633 43.7097 29.4255 43.8474C29.2878 43.9851 29.101 44.0625 28.9062 44.0625H28.1719C27.9771 44.0625 27.7903 43.9851 27.6526 43.8474C27.5149 43.7097 27.4375 43.5229 27.4375 43.3281C27.4375 43.1334 27.5149 42.9466 27.6526 42.8088C27.7903 42.6711 27.9771 42.5938 28.1719 42.5938Z" fill="#37425D"/>
<path d="M29.1719 42.5938H29.9062C30.101 42.5938 30.2878 42.6711 30.4255 42.8088C30.5633 42.9466 30.6406 43.1334 30.6406 43.3281C30.6406 43.5229 30.5633 43.7097 30.4255 43.8474C30.2878 43.9851 30.101 44.0625 29.9062 44.0625H29.1719C28.9771 44.0625 28.7903 43.9851 28.6526 43.8474C28.5149 43.7097 28.4375 43.5229 28.4375 43.3281C28.4375 43.1334 28.5149 42.9466 28.6526 42.8088C28.7903 42.6711 28.9771 42.5938 29.1719 42.5938Z" fill="#37425D"/>
<path d="M30.1719 42.5938H30.9062C31.101 42.5938 31.2878 42.6711 31.4255 42.8088C31.5633 42.9466 31.6406 43.1334 31.6406 43.3281C31.6406 43.5229 31.5633 43.7097 31.4255 43.8474C31.2878 43.9851 31.101 44.0625 30.9062 44.0625H30.1719C29.9771 44.0625 29.7903 43.9851 29.6526 43.8474C29.5149 43.7097 29.4375 43.5229 29.4375 43.3281C29.4375 43.1334 29.5149 42.9466 29.6526 42.8088C29.7903 42.6711 29.9771 42.5938 30.1719 42.5938Z" fill="#37425D"/>
<path d="M26.1719 42.5938H26.9062C27.101 42.5938 27.2878 42.6711 27.4255 42.8088C27.5633 42.9466 27.6406 43.1334 27.6406 43.3281C27.6406 43.5229 27.5633 43.7097 27.4255 43.8474C27.2878 43.9851 27.101 44.0625 26.9062 44.0625H26.1719C25.9771 44.0625 25.7903 43.9851 25.6526 43.8474C25.5149 43.7097 25.4375 43.5229 25.4375 43.3281C25.4375 43.1334 25.5149 42.9466 25.6526 42.8088C25.7903 42.6711 25.9771 42.5938 26.1719 42.5938Z" fill="#37425D"/>
<path d="M25.1719 42.5938H25.9062C26.101 42.5938 26.2878 42.6711 26.4255 42.8088C26.5633 42.9466 26.6406 43.1334 26.6406 43.3281C26.6406 43.5229 26.5633 43.7097 26.4255 43.8474C26.2878 43.9851 26.101 44.0625 25.9062 44.0625H25.1719C24.9771 44.0625 24.7903 43.9851 24.6526 43.8474C24.5149 43.7097 24.4375 43.5229 24.4375 43.3281C24.4375 43.1334 24.5149 42.9466 24.6526 42.8088C24.7903 42.6711 24.9771 42.5938 25.1719 42.5938Z" fill="#37425D"/>
<path d="M24.1719 42.5938H24.9062C25.101 42.5938 25.2878 42.6711 25.4255 42.8088C25.5633 42.9466 25.6406 43.1334 25.6406 43.3281C25.6406 43.5229 25.5633 43.7097 25.4255 43.8474C25.2878 43.9851 25.101 44.0625 24.9062 44.0625H24.1719C23.9771 44.0625 23.7903 43.9851 23.6526 43.8474C23.5149 43.7097 23.4375 43.5229 23.4375 43.3281C23.4375 43.1334 23.5149 42.9466 23.6526 42.8088C23.7903 42.6711 23.9771 42.5938 24.1719 42.5938Z" fill="#37425D"/>
<path d="M33.7812 10.2812H17.625C17.4302 10.2812 17.2434 10.3586 17.1057 10.4963C16.968 10.6341 16.8906 10.8209 16.8906 11.0156V16.1562C16.8906 16.351 16.968 16.5378 17.1057 16.6755C17.2434 16.8133 17.4302 16.8906 17.625 16.8906H33.7812C33.976 16.8906 34.1628 16.8133 34.3005 16.6755C34.4383 16.5378 34.5156 16.351 34.5156 16.1562V11.0156C34.5156 10.8209 34.4383 10.6341 34.3005 10.4963C34.1628 10.3586 33.976 10.2812 33.7812 10.2812ZM33.0469 15.4219H18.3594V11.75H33.0469V15.4219ZM32.3125 31.5781H19.0938C18.899 31.5781 18.7122 31.6555 18.5745 31.7932C18.4367 31.9309 18.3594 32.1177 18.3594 32.3125C18.3594 32.5073 18.4367 32.6941 18.5745 32.8318C18.7122 32.9695 18.899 33.0469 19.0938 33.0469H32.3125C32.5073 33.0469 32.6941 32.9695 32.8318 32.8318C32.9695 32.6941 33.0469 32.5073 33.0469 32.3125C33.0469 32.1177 32.9695 31.9309 32.8318 31.7932C32.6941 31.6555 32.5073 31.5781 32.3125 31.5781ZM27.9062 42.5938H27.1719C26.9771 42.5938 26.7903 42.6711 26.6526 42.8088C26.5149 42.9466 26.4375 43.1334 26.4375 43.3281C26.4375 43.5229 26.5149 43.7097 26.6526 43.8474C26.7903 43.9851 26.9771 44.0625 27.1719 44.0625H27.9062C28.101 44.0625 28.2878 43.9851 28.4255 43.8474C28.5633 43.7097 28.6406 43.5229 28.6406 43.3281C28.6406 43.1334 28.5633 42.9466 28.4255 42.8088C28.2878 42.6711 28.101 42.5938 27.9062 42.5938Z" stroke="#37425D" stroke-width="0.5"/>
<path d="M33.7812 10.2812H17.625C17.4302 10.2812 17.2434 10.3586 17.1057 10.4963C16.968 10.6341 16.8906 10.8209 16.8906 11.0156V16.1562C16.8906 16.351 16.968 16.5378 17.1057 16.6755C17.2434 16.8133 17.4302 16.8906 17.625 16.8906H33.7812C33.976 16.8906 34.1628 16.8133 34.3005 16.6755C34.4383 16.5378 34.5156 16.351 34.5156 16.1562V11.0156C34.5156 10.8209 34.4383 10.6341 34.3005 10.4963C34.1628 10.3586 33.976 10.2812 33.7812 10.2812ZM33.0469 15.4219H18.3594V11.75H33.0469V15.4219ZM32.3125 31.5781H19.0938C18.899 31.5781 18.7122 31.6555 18.5745 31.7932C18.4367 31.9309 18.3594 32.1177 18.3594 32.3125C18.3594 32.5073 18.4367 32.6941 18.5745 32.8318C18.7122 32.9695 18.899 33.0469 19.0938 33.0469H32.3125C32.5073 33.0469 32.6941 32.9695 32.8318 32.8318C32.9695 32.6941 33.0469 32.5073 33.0469 32.3125C33.0469 32.1177 32.9695 31.9309 32.8318 31.7932C32.6941 31.6555 32.5073 31.5781 32.3125 31.5781ZM27.9062 42.5938H27.1719C26.9771 42.5938 26.7903 42.6711 26.6526 42.8088C26.5149 42.9466 26.4375 43.1334 26.4375 43.3281C26.4375 43.5229 26.5149 43.7097 26.6526 43.8474C26.7903 43.9851 26.9771 44.0625 27.1719 44.0625H27.9062C28.101 44.0625 28.2878 43.9851 28.4255 43.8474C28.5633 43.7097 28.6406 43.5229 28.6406 43.3281C28.6406 43.1334 28.5633 42.9466 28.4255 42.8088C28.2878 42.6711 28.101 42.5938 27.9062 42.5938Z" stroke="#37425D" stroke-width="0.5"/>
<path d="M27.1719 42.5938H27.9062C28.101 42.5938 28.2878 42.6711 28.4255 42.8088C28.5633 42.9466 28.6406 43.1334 28.6406 43.3281C28.6406 43.5229 28.5633 43.7097 28.4255 43.8474C28.2878 43.9851 28.101 44.0625 27.9062 44.0625H27.1719C26.9771 44.0625 26.7903 43.9851 26.6526 43.8474C26.5149 43.7097 26.4375 43.5229 26.4375 43.3281C26.4375 43.1334 26.5149 42.9466 26.6526 42.8088C26.7903 42.6711 26.9771 42.5938 27.1719 42.5938Z" stroke="#37425D" stroke-width="0.5"/>
<path d="M28.1719 42.5938H28.9062C29.101 42.5938 29.2878 42.6711 29.4255 42.8088C29.5633 42.9466 29.6406 43.1334 29.6406 43.3281C29.6406 43.5229 29.5633 43.7097 29.4255 43.8474C29.2878 43.9851 29.101 44.0625 28.9062 44.0625H28.1719C27.9771 44.0625 27.7903 43.9851 27.6526 43.8474C27.5149 43.7097 27.4375 43.5229 27.4375 43.3281C27.4375 43.1334 27.5149 42.9466 27.6526 42.8088C27.7903 42.6711 27.9771 42.5938 28.1719 42.5938Z" stroke="#37425D" stroke-width="0.5"/>
<path d="M29.1719 42.5938H29.9062C30.101 42.5938 30.2878 42.6711 30.4255 42.8088C30.5633 42.9466 30.6406 43.1334 30.6406 43.3281C30.6406 43.5229 30.5633 43.7097 30.4255 43.8474C30.2878 43.9851 30.101 44.0625 29.9062 44.0625H29.1719C28.9771 44.0625 28.7903 43.9851 28.6526 43.8474C28.5149 43.7097 28.4375 43.5229 28.4375 43.3281C28.4375 43.1334 28.5149 42.9466 28.6526 42.8088C28.7903 42.6711 28.9771 42.5938 29.1719 42.5938Z" stroke="#37425D" stroke-width="0.5"/>
<path d="M30.1719 42.5938H30.9062C31.101 42.5938 31.2878 42.6711 31.4255 42.8088C31.5633 42.9466 31.6406 43.1334 31.6406 43.3281C31.6406 43.5229 31.5633 43.7097 31.4255 43.8474C31.2878 43.9851 31.101 44.0625 30.9062 44.0625H30.1719C29.9771 44.0625 29.7903 43.9851 29.6526 43.8474C29.5149 43.7097 29.4375 43.5229 29.4375 43.3281C29.4375 43.1334 29.5149 42.9466 29.6526 42.8088C29.7903 42.6711 29.9771 42.5938 30.1719 42.5938Z" stroke="#37425D" stroke-width="0.5"/>
<path d="M26.1719 42.5938H26.9062C27.101 42.5938 27.2878 42.6711 27.4255 42.8088C27.5633 42.9466 27.6406 43.1334 27.6406 43.3281C27.6406 43.5229 27.5633 43.7097 27.4255 43.8474C27.2878 43.9851 27.101 44.0625 26.9062 44.0625H26.1719C25.9771 44.0625 25.7903 43.9851 25.6526 43.8474C25.5149 43.7097 25.4375 43.5229 25.4375 43.3281C25.4375 43.1334 25.5149 42.9466 25.6526 42.8088C25.7903 42.6711 25.9771 42.5938 26.1719 42.5938Z" stroke="#37425D" stroke-width="0.5"/>
<path d="M25.1719 42.5938H25.9062C26.101 42.5938 26.2878 42.6711 26.4255 42.8088C26.5633 42.9466 26.6406 43.1334 26.6406 43.3281C26.6406 43.5229 26.5633 43.7097 26.4255 43.8474C26.2878 43.9851 26.101 44.0625 25.9062 44.0625H25.1719C24.9771 44.0625 24.7903 43.9851 24.6526 43.8474C24.5149 43.7097 24.4375 43.5229 24.4375 43.3281C24.4375 43.1334 24.5149 42.9466 24.6526 42.8088C24.7903 42.6711 24.9771 42.5938 25.1719 42.5938Z" stroke="#37425D" stroke-width="0.5"/>
<path d="M24.1719 42.5938H24.9062C25.101 42.5938 25.2878 42.6711 25.4255 42.8088C25.5633 42.9466 25.6406 43.1334 25.6406 43.3281C25.6406 43.5229 25.5633 43.7097 25.4255 43.8474C25.2878 43.9851 25.101 44.0625 24.9062 44.0625H24.1719C23.9771 44.0625 23.7903 43.9851 23.6526 43.8474C23.5149 43.7097 23.4375 43.5229 23.4375 43.3281C23.4375 43.1334 23.5149 42.9466 23.6526 42.8088C23.7903 42.6711 23.9771 42.5938 24.1719 42.5938Z" stroke="#37425D" stroke-width="0.5"/>
</svg>
