<svg width="56" height="35" viewBox="0 0 56 35" fill="none" xmlns="http://www.w3.org/2000/svg">
<path d="M25.4619 1.43848C26.752 0.834166 28.264 0.53923 29.7666 0.921875L30.1885 1.03906C31.1518 1.33113 31.9621 1.75012 32.6543 2.34766C33.4446 3.02987 34.0672 3.93275 34.5947 5.10938L34.793 5.58398C35.2134 6.67035 35.3447 7.6239 35.3438 8.71191L35.3398 8.97754C35.2665 11.5371 34.135 13.8087 32.4111 15.2588C34.1098 15.9196 35.6726 16.9558 37.0049 18.3066L37.3115 18.6279C37.5551 18.8908 37.7885 19.1647 38.0137 19.4473C38.8024 18.7792 39.6695 18.235 40.5918 17.8311C39.3116 16.592 38.5049 14.7678 38.5049 12.7422C38.505 9.05383 41.1892 6.00415 44.5469 6.00391C47.9048 6.00391 50.5898 9.05368 50.5898 12.7422C50.5898 14.7679 49.7821 16.5911 48.502 17.8301C51.9484 19.3331 54.5554 22.745 55.2246 27.0049L55.2461 27.207C55.2745 27.6777 55.1427 28.135 54.8623 28.5088L54.8613 28.5078C54.5402 28.9364 54.078 29.1836 53.5605 29.1836H41.3438V29.333C41.3436 32.0171 39.3882 34.25 36.9268 34.25H19.0732C16.6119 34.25 14.6564 32.0171 14.6562 29.333V29.1836H2.43945C1.92218 29.1836 1.45892 28.9374 1.1377 28.5088C0.817445 28.0814 0.690644 27.5451 0.775391 27.0049L0.84668 26.5947C1.61428 22.5266 4.16245 19.2848 7.49707 17.8301C6.21719 16.5911 5.41018 14.7675 5.41016 12.7422C5.41016 9.05361 8.09511 6.00293 11.4531 6.00293C14.8109 6.00306 17.4951 9.05369 17.4951 12.7422C17.4951 14.7682 16.6877 16.592 15.4072 17.8311C16.3296 18.235 17.1966 18.7792 17.9854 19.4473C18.3039 19.0475 18.6401 18.6656 18.9951 18.3057L19.2686 18.0361C20.5391 16.8167 22.0044 15.8749 23.5879 15.2588C21.805 13.7587 20.6562 11.3791 20.6562 8.71191L20.6621 8.46777C20.7173 7.21702 21.2036 5.53041 22.4238 3.86621C23.0859 2.96335 24.1732 2.04216 25.4619 1.43848ZM28 16.9092L27.9902 16.9082C22.3245 16.9136 17.5593 21.6577 16.9258 28.0127V29.333C16.9258 30.7027 17.9158 31.7676 19.0732 31.7676H36.9268C38.0844 31.7676 39.0742 30.7027 39.0742 29.333V28.0127C38.4405 21.6573 33.6748 16.9132 28.0088 16.9082L28 16.9092ZM44.1807 19.4902C42.4246 19.5736 40.7524 20.2558 39.3604 21.4492C40.2636 23.0549 40.8852 24.837 41.1914 26.7012H52.8467C51.9101 22.5941 48.6916 19.6735 44.9238 19.4902L44.5479 19.4814H44.5459L44.1807 19.4902ZM11.0762 19.4902C7.30837 19.6735 4.08986 22.5937 3.15332 26.7012H14.8086C15.1147 24.8371 15.7355 23.0548 16.6387 21.4492C15.2467 20.256 13.5751 19.5726 11.8193 19.4893L11.4541 19.4814H11.4521L11.0762 19.4902ZM11.4531 8.48633C9.399 8.48633 7.68074 10.3682 7.68066 12.7422C7.68066 15.1159 9.3986 16.9975 11.4521 16.998H11.4541L11.6455 16.9932C13.6132 16.8799 15.2256 15.0416 15.2256 12.7422C15.2255 10.3682 13.507 8.48646 11.4531 8.48633ZM44.5469 8.48633C42.493 8.48657 40.7745 10.3684 40.7744 12.7422C40.7744 15.1157 42.4924 16.9973 44.5459 16.998H44.5479C46.6015 16.9975 48.3203 15.1159 48.3203 12.7422C48.3202 10.3681 46.601 8.48633 44.5469 8.48633ZM28 2.99902C25.2286 2.99908 22.9269 5.53438 22.9268 8.71191C22.9268 11.8885 25.2269 14.4239 27.9971 14.4258H28.0029L28.2607 14.418C30.9144 14.265 33.0742 11.7895 33.0742 8.71191C33.0741 5.53435 30.7714 2.99902 28 2.99902Z" fill="#37425D" stroke="#37425D" stroke-width="0.5"/>
</svg>
