<svg width="125" height="125" viewBox="0 0 125 125" fill="none" xmlns="http://www.w3.org/2000/svg">
<path d="M88.3271 12.5H29.8959C27.6993 12.5022 25.5934 13.3759 24.0404 14.9293C22.4874 16.4827 21.6142 18.5889 21.6125 20.7854V99.0354C21.6142 101.232 22.4874 103.338 24.0404 104.892C25.5934 106.445 27.6993 107.319 29.8959 107.321H88.3271C88.4521 107.321 88.5709 107.294 88.6938 107.29L91.9417 110.535C93.2084 111.802 94.8938 112.5 96.6834 112.5C98.473 112.5 100.16 111.802 101.427 110.535C102.683 109.277 103.388 107.572 103.388 105.794C103.388 104.016 102.683 102.311 101.427 101.052L96.6105 96.2354V20.7854C96.6088 18.5889 95.7356 16.4827 94.1826 14.9293C92.6296 13.3759 90.5237 12.5022 88.3271 12.5ZM29.8959 103.154C28.8044 103.153 27.758 102.719 26.9862 101.947C26.2144 101.175 25.7803 100.129 25.7792 99.0375V20.7854C25.7792 18.5146 27.6251 16.6667 29.8959 16.6667H88.3271C90.598 16.6667 92.4438 18.5146 92.4438 20.7854V92.0687L89.7563 89.3812C94.0313 81.0833 92.7042 70.6229 85.7584 63.6792C81.5938 59.5125 76.0563 57.2208 70.1667 57.2208C67.2695 57.2125 64.3995 57.779 61.7227 58.8876C59.046 59.9962 56.6158 61.6248 54.573 63.6792C50.4084 67.8458 48.1146 73.3812 48.1146 79.2729C48.1146 85.1625 50.4084 90.7 54.573 94.8646C58.7396 99.0312 64.275 101.323 70.1667 101.323C73.7438 101.323 77.1875 100.467 80.275 98.8687L84.5605 103.154H29.8959ZM70.1667 97.1583C65.3875 97.1583 60.898 95.2979 57.5209 91.9187C54.1438 88.5396 52.2813 84.05 52.2813 79.2729C52.2813 74.4937 54.1417 70.0042 57.5209 66.6271C60.9 63.25 65.3875 61.3875 70.1667 61.3875C74.9438 61.3875 79.4355 63.2479 82.8125 66.625C89.7855 73.6 89.7855 84.9437 82.8125 91.9187C81.1558 93.5848 79.1851 94.9058 77.0144 95.8051C74.8438 96.7045 72.5163 97.1644 70.1667 97.1583ZM98.4792 107.59C97.5209 108.548 95.85 108.55 94.8896 107.59L83.848 96.55C84.5105 96.025 85.1521 95.4708 85.7584 94.8646C86.3667 94.2562 86.9209 93.6146 87.4417 92.9583L98.4813 103.998C98.9566 104.475 99.2235 105.121 99.2235 105.794C99.2235 106.467 98.9545 107.113 98.4792 107.59Z" fill="#37425D"/>
<path d="M34.1522 32.1667H84.073C84.6256 32.1667 85.1555 31.9472 85.5462 31.5565C85.9369 31.1658 86.1564 30.6359 86.1564 30.0833C86.1564 29.5308 85.9369 29.0009 85.5462 28.6102C85.1555 28.2195 84.6256 28 84.073 28H34.1522C33.5996 28 33.0697 28.2195 32.679 28.6102C32.2883 29.0009 32.0688 29.5308 32.0688 30.0833C32.0688 30.6359 32.2883 31.1658 32.679 31.5565C33.0697 31.9472 33.5996 32.1667 34.1522 32.1667ZM34.1522 44.9167H84.073C84.6256 44.9167 85.1555 44.6972 85.5462 44.3065C85.9369 43.9158 86.1564 43.3859 86.1564 42.8333C86.1564 42.2808 85.9369 41.7509 85.5462 41.3602C85.1555 40.9695 84.6256 40.75 84.073 40.75H34.1522C33.5996 40.75 33.0697 40.9695 32.679 41.3602C32.2883 41.7509 32.0688 42.2808 32.0688 42.8333C32.0688 43.3859 32.2883 43.9158 32.679 44.3065C33.0697 44.6972 33.5996 44.9167 34.1522 44.9167ZM48.7584 55.5833C48.7584 55.0308 48.5389 54.5009 48.1482 54.1102C47.7575 53.7195 47.2276 53.5 46.6751 53.5H34.1522C33.5996 53.5 33.0697 53.7195 32.679 54.1102C32.2883 54.5009 32.0688 55.0308 32.0688 55.5833C32.0688 56.1359 32.2883 56.6658 32.679 57.0565C33.0697 57.4472 33.5996 57.6667 34.1522 57.6667H46.6751C47.2276 57.6667 47.7575 57.4472 48.1482 57.0565C48.5389 56.6658 48.7584 56.1359 48.7584 55.5833ZM41.6543 66.25H34.1522C33.5996 66.25 33.0697 66.4695 32.679 66.8602C32.2883 67.2509 32.0688 67.7808 32.0688 68.3333C32.0688 68.8859 32.2883 69.4158 32.679 69.8065C33.0697 70.1972 33.5996 70.4167 34.1522 70.4167H41.6522C42.2047 70.4167 42.7346 70.1972 43.1253 69.8065C43.516 69.4158 43.7355 68.8859 43.7355 68.3333C43.7355 67.7808 43.516 67.2509 43.1253 66.8602C42.7346 66.4695 42.2068 66.25 41.6543 66.25ZM41.6543 79H34.1522C33.5996 79 33.0697 79.2195 32.679 79.6102C32.2883 80.0009 32.0688 80.5308 32.0688 81.0833C32.0688 81.6359 32.2883 82.1658 32.679 82.5565C33.0697 82.9472 33.5996 83.1667 34.1522 83.1667H41.6522C42.2047 83.1667 42.7346 82.9472 43.1253 82.5565C43.516 82.1658 43.7355 81.6359 43.7355 81.0833C43.7355 80.5308 43.516 80.0009 43.1253 79.6102C42.7346 79.2195 42.2068 79 41.6543 79ZM70.1668 65.5542C68.3645 65.5493 66.5792 65.902 64.9142 66.5918C63.2492 67.2816 61.7375 68.2949 60.4668 69.5729C59.1882 70.8434 58.1744 72.3549 57.4842 74.02C56.794 75.685 56.4411 77.4705 56.4459 79.2729C56.4459 79.8254 56.6654 80.3554 57.0561 80.7461C57.4468 81.1368 57.9767 81.3562 58.5293 81.3562C59.0818 81.3562 59.6117 81.1368 60.0024 80.7461C60.3931 80.3554 60.6126 79.8254 60.6126 79.2729C60.6126 76.7208 61.6084 74.3229 63.4126 72.5187C64.2976 71.6291 65.3502 70.9237 66.5095 70.4434C67.6688 69.9632 68.9119 69.7176 70.1668 69.7208C70.7193 69.7208 71.2492 69.5013 71.6399 69.1106C72.0306 68.7199 72.2501 68.19 72.2501 67.6375C72.2501 67.085 72.0306 66.5551 71.6399 66.1644C71.2492 65.7737 70.7193 65.5542 70.1668 65.5542Z" fill="#37425D"/>
</svg>
