<svg width="94" height="83" viewBox="0 0 94 83" fill="none" xmlns="http://www.w3.org/2000/svg">
<path d="M62.7814 5.22822C66.2124 3.16382 71.7534 1.21172 76.5385 5.84032C87.8976 16.8276 68.4178 38 59.5 38C50.5822 38 31.1024 16.8277 42.4615 5.84032C47.2465 1.21182 52.7876 3.16392 56.2186 5.22822C57.1879 5.81142 58.3439 6.75002 59.5 6.75002C60.656 6.75002 61.8121 5.81142 62.7814 5.22822Z" stroke="#37425D" stroke-width="5" stroke-linecap="round"/>
<path d="M22.8324 75.645L46.0839 81.8389C49.3877 82.721 52.9038 82.3058 55.9114 80.6786L89.9653 62.3009C91.5313 61.4519 92.7549 60.0867 93.4282 58.4375C94.1014 56.7883 94.1828 54.9568 93.6584 53.2544C93.046 51.2735 91.695 49.6578 89.8566 48.7016C88.0181 47.7454 85.9178 47.5735 83.9437 48.2114L62.0244 55.3025C61.1498 54.4496 60.0933 53.8058 58.9343 53.4196L40.1025 47.141C37.4153 46.2452 34.767 46.1767 32.2061 46.1096L22.8324 46.0398V42H0V79.6041H22.8324V75.645ZM31.1008 51.4521L32.0651 51.4789C34.4313 51.5407 36.4739 51.5944 38.4037 52.2377L57.2355 58.5163C57.9041 58.737 58.4609 59.2084 58.789 59.8313C59.1171 60.4542 59.1909 61.1801 58.9948 61.8563C58.8011 62.5416 58.346 63.1233 57.7276 63.4762C57.1092 63.8292 56.3769 63.9251 55.6885 63.7433L34.207 58.1765L32.8601 63.3766L54.3415 68.942C55.0169 69.1175 55.7118 69.2065 56.4096 69.2066C58.1635 69.2062 59.8693 68.633 61.2675 67.5741C62.6657 66.5152 63.6799 65.0286 64.1556 63.3404C64.4618 62.2794 64.5397 61.205 64.4229 60.1722L85.5981 53.3215C85.8903 53.2261 86.1985 53.1901 86.5048 53.2154C86.811 53.2408 87.1091 53.3271 87.3816 53.4693C87.9362 53.758 88.3431 54.2455 88.5284 54.8418C88.6864 55.3554 88.6618 55.9079 88.4586 56.4054C88.2554 56.9029 87.8862 57.3147 87.4138 57.5708L53.3599 75.9512C51.5561 76.9288 49.4464 77.1783 47.4644 76.6482L22.8324 70.0863V51.4064L31.1008 51.4521ZM17.4607 74.2321H5.37171V47.372H17.4607V74.2321Z" fill="#37425D"/>
</svg>
