<svg width="94" height="76" viewBox="0 0 94 76" fill="none" xmlns="http://www.w3.org/2000/svg">
<path d="M22.8324 68.3884L46.0839 74.5823C49.3877 75.4644 52.9038 75.0492 55.9114 73.422L89.9653 55.0443C91.5313 54.1953 92.7549 52.8302 93.4282 51.1809C94.1014 49.5317 94.1828 47.7002 93.6584 45.9978C93.046 44.0169 91.695 42.4012 89.8566 41.445C88.0181 40.4888 85.9178 40.3169 83.9437 40.9548L62.0244 48.0459C61.1498 47.193 60.0933 46.5492 58.9343 46.163L40.1025 39.8844C37.4153 38.9886 34.767 38.9202 32.2061 38.853L22.8324 38.7832V34.7434H0V72.3476H22.8324V68.3884ZM31.1008 44.1955L32.0651 44.2223C34.4313 44.2841 36.4739 44.3378 38.4037 44.9811L57.2355 51.2597C57.9041 51.4804 58.4609 51.9518 58.789 52.5747C59.1171 53.1977 59.1909 53.9235 58.9948 54.5997C58.8011 55.285 58.346 55.8667 57.7276 56.2196C57.1092 56.5726 56.3769 56.6685 55.6885 56.4867L34.207 50.9199L32.8601 56.12L54.3415 61.6854C55.0169 61.861 55.7118 61.9499 56.4096 61.95C58.1635 61.9496 59.8693 61.3764 61.2675 60.3175C62.6657 59.2586 63.6799 57.772 64.1556 56.0838C64.4618 55.0228 64.5397 53.9484 64.4229 52.9156L85.5981 46.0649C85.8903 45.9696 86.1985 45.9335 86.5048 45.9588C86.811 45.9842 87.1091 46.0705 87.3816 46.2127C87.9362 46.5014 88.3431 46.9889 88.5284 47.5852C88.6864 48.0989 88.6618 48.6514 88.4586 49.1488C88.2554 49.6463 87.8862 50.0581 87.4138 50.3142L53.3599 68.6946C51.5561 69.6722 49.4464 69.9217 47.4644 69.3916L22.8324 62.8297V44.1498L31.1008 44.1955ZM17.4607 66.9755H5.37171V40.1154H17.4607V66.9755Z" fill="#37425D"/>
<circle cx="35" cy="12" r="9.5" stroke="#37425D" stroke-width="5"/>
<circle cx="66.5" cy="28.5" r="12" stroke="#37425D" stroke-width="5"/>
</svg>
