<svg width="104" height="88" viewBox="0 0 104 88" fill="none" xmlns="http://www.w3.org/2000/svg">
<ellipse cx="30.5" cy="31" rx="30.5" ry="31" fill="#CCCCCC"/>
<path d="M86.75 30C87.7027 30 88.475 29.1885 88.475 28.1875C88.475 27.1865 87.7027 26.375 86.75 26.375C85.7973 26.375 85.025 27.1865 85.025 28.1875C85.025 29.1885 85.7973 30 86.75 30Z" fill="#37425D"/>
<path d="M93.65 30C94.6027 30 95.375 29.1885 95.375 28.1875C95.375 27.1865 94.6027 26.375 93.65 26.375C92.6974 26.375 91.925 27.1865 91.925 28.1875C91.925 29.1885 92.6974 30 93.65 30Z" fill="#37425D"/>
<path d="M79.85 30C80.8027 30 81.575 29.1885 81.575 28.1875C81.575 27.1865 80.8027 26.375 79.85 26.375C78.8973 26.375 78.125 27.1865 78.125 28.1875C78.125 29.1885 78.8973 30 79.85 30Z" fill="#37425D"/>
<path d="M98.825 13.6875H74.675C73.3025 13.6875 71.9862 14.2604 71.0157 15.2801C70.0452 16.2998 69.5 17.6829 69.5 19.125V46.3125C69.5005 46.6337 69.5823 46.9489 69.7368 47.226C69.8914 47.5031 70.1133 47.732 70.3798 47.8894C70.6376 48.0429 70.9287 48.124 71.225 48.125C71.5346 48.1249 71.8385 48.0373 72.1047 47.8713L79.85 42.9412C80.1363 42.7622 80.4658 42.674 80.7988 42.6875H98.825C100.197 42.6875 101.514 42.1146 102.484 41.0949C103.455 40.0752 104 38.6921 104 37.25V19.125C104 17.6829 103.455 16.2998 102.484 15.2801C101.514 14.2604 100.197 13.6875 98.825 13.6875ZM100.55 37.25C100.55 37.7307 100.368 38.1917 100.045 38.5316C99.7213 38.8715 99.2825 39.0625 98.825 39.0625H80.7988C79.8566 39.0617 78.9321 39.3312 78.125 39.8419L72.95 43.1044V19.125C72.95 18.6443 73.1317 18.1833 73.4552 17.8434C73.7787 17.5035 74.2175 17.3125 74.675 17.3125H98.825C99.2825 17.3125 99.7213 17.5035 100.045 17.8434C100.368 18.1833 100.55 18.6443 100.55 19.125V37.25Z" fill="#37425D"/>
<path d="M79.6209 67.1584L74.5313 61.1758C73.0141 59.4067 70.9663 58.4093 68.8293 58.3987C66.6923 58.388 64.6373 59.3648 63.1074 61.1187C62.291 62.0837 61.214 62.6842 60.0618 62.8167C58.9095 62.9492 57.7539 62.6055 56.7939 61.8447C53.0049 58.8724 49.7499 55.0536 47.2138 50.6056C46.578 49.4646 46.2962 48.1009 46.4159 46.7441C46.5356 45.3874 47.0494 44.1207 47.8709 43.1573C49.3494 41.3572 50.1697 38.9484 50.1563 36.4464C50.1429 33.9443 49.2968 31.5478 47.7991 29.7698L42.7095 23.7872C41.1857 22.0023 39.1222 21 36.971 21C34.8197 21 32.7562 22.0023 31.2324 23.7872L29.768 25.5113C22.1335 34.4852 22.705 53.3522 38.5892 72.0124C48.167 83.2733 57.8072 87.9887 65.6244 87.9887C67.9255 88.0788 70.2189 87.6296 72.3709 86.6674C74.5228 85.7051 76.4904 84.2491 78.1588 82.3841L79.6255 80.66C81.1468 78.8681 82.0009 76.4396 82 73.9081C81.9991 71.3765 81.1434 68.9489 79.6209 67.1584ZM76.3497 76.8148L74.8829 78.5389C68.8679 85.6093 55.5909 84.3176 41.8558 68.17C28.1208 52.0224 27.0196 36.4051 33.0346 29.3347L34.4898 27.6134C35.145 26.846 36.0322 26.4152 36.9571 26.4152C37.882 26.4152 38.7692 26.846 39.4244 27.6134L44.514 33.596C45.1573 34.3559 45.5225 35.3813 45.5315 36.4533C45.5406 37.5253 45.1929 38.559 44.5626 39.3338C42.9993 41.1831 42.0242 43.6077 41.8006 46.2013C41.5769 48.795 42.1183 51.4002 43.3342 53.5806C46.2157 58.6492 49.9212 62.9984 54.2375 66.3779C56.0869 67.8072 58.2974 68.4474 60.5 68.1916C62.7026 67.9357 64.7638 66.7992 66.3393 64.972C66.9972 64.2224 67.8791 63.8061 68.7954 63.8127C69.7117 63.8193 70.5892 64.2483 71.2392 65.0074L76.3288 70.99C76.6569 71.37 76.9177 71.8225 77.0964 72.3214C77.2751 72.8204 77.3681 73.3559 77.37 73.8973C77.372 74.4387 77.2828 74.9751 77.1077 75.4758C76.9326 75.9765 76.6749 76.4316 76.3497 76.8148Z" fill="#37425D"/>
</svg>
