<svg width="86" height="86" viewBox="0 0 86 86" fill="none" xmlns="http://www.w3.org/2000/svg">
<ellipse cx="34.5" cy="52" rx="34.5" ry="34" fill="#CCCCCC"/>
<path d="M21.7671 67.0707H26.7081V71.8614C26.7081 73.132 27.2287 74.3506 28.1553 75.249C29.0819 76.1474 30.3387 76.6522 31.6491 76.6522H81.059C82.3695 76.6522 83.6262 76.1474 84.5528 75.249C85.4795 74.3506 86 73.132 86 71.8614V14.3723C86 13.1017 85.4795 11.8831 84.5528 10.9847C83.6262 10.0863 82.3695 9.58152 81.059 9.58152H76.118V4.79076C76.118 3.52017 75.5975 2.30162 74.6709 1.40318C73.7442 0.50474 72.4875 0 71.177 0L21.7671 0C20.4567 0 19.1999 0.50474 18.2733 1.40318C17.3467 2.30162 16.8261 3.52017 16.8261 4.79076V62.2799C16.8261 63.5505 17.3467 64.769 18.2733 65.6675C19.1999 66.5659 20.4567 67.0707 21.7671 67.0707ZM71.177 62.2799H21.7671V4.79076H71.177V62.2799ZM81.059 14.3723V71.8614H31.6491V67.0707H71.177C72.4875 67.0707 73.7442 66.5659 74.6709 65.6675C75.5975 64.769 76.118 63.5505 76.118 62.2799V14.3723H81.059ZM36.5901 16.7677C36.5901 17.403 36.8504 18.0122 37.3137 18.4615C37.777 18.9107 38.4054 19.163 39.0606 19.163H63.7656C64.4208 19.163 65.0492 18.9107 65.5125 18.4615C65.9758 18.0122 66.236 17.403 66.236 16.7677C66.236 16.1324 65.9758 15.5231 65.5125 15.0739C65.0492 14.6247 64.4208 14.3723 63.7656 14.3723H39.0606C38.4054 14.3723 37.777 14.6247 37.3137 15.0739C36.8504 15.5231 36.5901 16.1324 36.5901 16.7677ZM29.1786 33.5353H63.7656C64.4208 33.5353 65.0492 33.283 65.5125 32.8337C65.9758 32.3845 66.236 31.7752 66.236 31.1399C66.236 30.5047 65.9758 29.8954 65.5125 29.4462C65.0492 28.9969 64.4208 28.7446 63.7656 28.7446H29.1786C28.5234 28.7446 27.895 28.9969 27.4317 29.4462C26.9684 29.8954 26.7081 30.5047 26.7081 31.1399C26.7081 31.7752 26.9684 32.3845 27.4317 32.8337C27.895 33.283 28.5234 33.5353 29.1786 33.5353ZM29.1786 43.1168H63.7656C64.4208 43.1168 65.0492 42.8645 65.5125 42.4153C65.9758 41.966 66.236 41.3568 66.236 40.7215C66.236 40.0862 65.9758 39.4769 65.5125 39.0277C65.0492 38.5785 64.4208 38.3261 63.7656 38.3261H29.1786C28.5234 38.3261 27.895 38.5785 27.4317 39.0277C26.9684 39.4769 26.7081 40.0862 26.7081 40.7215C26.7081 41.3568 26.9684 41.966 27.4317 42.4153C27.895 42.8645 28.5234 43.1168 29.1786 43.1168ZM29.1786 52.6984H63.7656C64.4208 52.6984 65.0492 52.446 65.5125 51.9968C65.9758 51.5476 66.236 50.9383 66.236 50.303C66.236 49.6677 65.9758 49.0584 65.5125 48.6092C65.0492 48.16 64.4208 47.9076 63.7656 47.9076H29.1786C28.5234 47.9076 27.895 48.16 27.4317 48.6092C26.9684 49.0584 26.7081 49.6677 26.7081 50.303C26.7081 50.9383 26.9684 51.5476 27.4317 51.9968C27.895 52.446 28.5234 52.6984 29.1786 52.6984Z" fill="#37425D"/>
</svg>
