<svg width="30" height="30" viewBox="0 0 30 30" fill="none" xmlns="http://www.w3.org/2000/svg">
<path d="M11.8902 6.73054C11.5082 2.33654 6.92423 0.180536 6.73023 0.0925357C6.54888 0.00728308 6.34564 -0.019955 6.14823 0.0145357C0.856235 0.892536 0.0602347 3.97254 0.0282347 4.10054C-0.0153027 4.27891 -0.00837807 4.46587 0.0482346 4.64054C6.36023 24.2245 19.4782 27.8545 23.7902 29.0485C24.1222 29.1405 24.3962 29.2145 24.6042 29.2825C24.8416 29.3601 25.0995 29.3451 25.3262 29.2405C25.4582 29.1805 28.5742 27.7125 29.3362 22.9245C29.37 22.7155 29.3364 22.5012 29.2402 22.3125C29.1722 22.1805 27.5422 19.0785 23.0222 17.9825C22.8689 17.9433 22.7083 17.9419 22.5543 17.9785C22.4003 18.0151 22.2576 18.0885 22.1382 18.1925C20.7122 19.4105 18.7422 20.7085 17.8922 20.8425C12.1942 18.0565 9.01223 12.7105 8.89223 11.6965C8.82223 11.1265 10.1282 9.12454 11.6302 7.49654C11.7246 7.39408 11.7965 7.27299 11.8413 7.14106C11.8861 7.00913 11.9028 6.86929 11.8902 6.73054Z" fill="white"/>
</svg>
