<svg width="42" height="46" viewBox="0 0 42 46" fill="none" xmlns="http://www.w3.org/2000/svg">
<path d="M22.7378 34.5993L22.7227 34.584L22.7011 34.5839L7.65462 34.5397C5.88509 34.5325 4.19069 33.8282 2.94312 32.5814C1.69555 31.3346 0.996763 29.647 1.00001 27.889L1.06024 7.61143C1.06746 5.85341 1.77625 4.16999 3.0312 2.93054C4.28614 1.69109 5.98466 0.996779 7.75424 1.00001L34.3454 1.07814C36.115 1.08537 37.8093 1.78963 39.0569 3.03642C40.3044 4.28325 41.0032 5.97078 41 7.7288L40.9398 28.0065C40.9325 29.759 40.228 31.4377 38.9798 32.6763C37.7317 33.9149 36.0411 34.6128 34.277 34.6179L34.2208 34.6181L34.2258 34.6738L35.012 43.4588C35.0381 43.7496 34.973 44.041 34.8256 44.2939C34.6782 44.5463 34.4558 44.7479 34.1889 44.87C33.9219 44.9921 33.6234 45.0295 33.3343 44.9767C33.0452 44.9238 32.7796 44.7833 32.5739 44.575L22.7378 34.5993ZM31.7178 39.6592L31.8188 39.7618L31.806 39.6187L31.2427 33.3223C31.2252 33.1262 31.249 32.9286 31.3127 32.7421C31.3763 32.5557 31.4784 32.3845 31.6124 32.2394C31.7464 32.0943 31.9093 31.9786 32.0909 31.8996C32.2724 31.8207 32.4686 31.7801 32.6668 31.7807L34.2542 31.7853C35.2679 31.7872 36.2408 31.3895 36.9596 30.6795C37.6785 29.9695 38.0845 29.0052 38.0887 27.9981L38.1489 7.72043C38.1507 6.71326 37.7504 5.74661 37.0358 5.0324C36.3212 4.31824 35.3506 3.91478 34.3371 3.91068L7.74579 3.8325C6.73223 3.8307 5.75921 4.22836 5.04036 4.93837C4.32151 5.64833 3.91547 6.61267 3.91129 7.61969L3.85106 27.8974C3.84926 28.9045 4.24958 29.8712 4.9642 30.5854C5.67876 31.2996 6.64931 31.703 7.66292 31.7072L23.3276 31.7532C23.5166 31.7538 23.7036 31.7917 23.8777 31.8647C24.0518 31.9377 24.2095 32.0444 24.3417 32.1785L31.7178 39.6592ZM22.8172 16.591L22.7898 25.7953C22.7902 26.0326 22.7434 26.2678 22.6521 26.4871C22.5608 26.7064 22.4268 26.9056 22.2578 27.0733C22.0888 27.241 21.8881 27.3739 21.6673 27.4643C21.4464 27.5547 21.2098 27.6009 20.9709 27.6002C20.7321 27.5995 20.4957 27.5519 20.2754 27.4602C20.0551 27.3685 19.8552 27.2344 19.6872 27.0657C19.5192 26.897 19.3864 26.697 19.2964 26.4772C19.2064 26.2574 19.161 26.0221 19.1628 25.7849L19.1902 16.5806C19.1898 16.3433 19.2365 16.108 19.3279 15.8887C19.4191 15.6694 19.5531 15.4702 19.7221 15.3025C19.8911 15.1349 20.0918 15.002 20.3127 14.9116C20.5335 14.8211 20.7701 14.775 21.009 14.7757C21.2479 14.7764 21.4842 14.8239 21.7046 14.9157C21.9249 15.0074 22.1248 15.1414 22.2928 15.3101C22.4608 15.4788 22.5936 15.6788 22.6836 15.8986C22.7736 16.1184 22.819 16.3537 22.8172 16.591ZM22.8372 9.83322C22.8362 10.1895 22.7288 10.5376 22.5286 10.8333C22.3285 11.129 22.0446 11.3591 21.7128 11.4945C21.381 11.6299 21.0163 11.6645 20.6646 11.594C20.313 11.5234 19.9904 11.3509 19.7376 11.0981C19.4847 10.8454 19.3129 10.5238 19.244 10.1741C19.1751 9.82445 19.212 9.46234 19.3503 9.13352C19.4885 8.80471 19.7218 8.52396 20.0206 8.32687C20.3194 8.12974 20.6704 8.02509 21.0291 8.02617C21.51 8.0276 21.9708 8.21879 22.3098 8.55766C22.6489 8.89658 22.8387 9.35538 22.8372 9.83322Z" fill="#273350"/>
<path d="M24.3417 32.1785C24.2095 32.0444 24.0518 31.9377 23.8777 31.8647C23.7036 31.7917 23.5166 31.7538 23.3276 31.7532L7.66292 31.7072C6.64931 31.703 5.67876 31.2996 4.9642 30.5854C4.24958 29.8712 3.84926 28.9045 3.85106 27.8974L3.91129 7.61969C3.91547 6.61267 4.32151 5.64833 5.04036 4.93837C5.75921 4.22836 6.73223 3.8307 7.74579 3.8325L34.3371 3.91068C35.3506 3.91478 36.3212 4.31824 37.0358 5.0324C37.7504 5.74661 38.1507 6.71326 38.1489 7.72043L38.0887 27.9981C38.0845 29.0052 37.6785 29.9695 36.9596 30.6795C36.2408 31.3895 35.2679 31.7872 34.2542 31.7853L32.6668 31.7807C32.4686 31.7801 32.2724 31.8207 32.0909 31.8996C31.9093 31.9786 31.7464 32.0943 31.6124 32.2394C31.4784 32.3845 31.3763 32.5557 31.3127 32.7421C31.249 32.9286 31.2252 33.1262 31.2427 33.3223L31.806 39.6187L31.8188 39.7618L31.7178 39.6592L24.3417 32.1785ZM24.3417 32.1785L24.3786 32.1426M22.7378 34.5993L22.7227 34.584L22.7011 34.5839L7.65462 34.5397C5.88509 34.5325 4.19069 33.8282 2.94312 32.5814C1.69555 31.3346 0.996763 29.647 1.00001 27.889L1.06024 7.61143C1.06746 5.85341 1.77625 4.16999 3.0312 2.93054C4.28614 1.69109 5.98466 0.996779 7.75424 1.00001L34.3454 1.07814C36.115 1.08537 37.8093 1.78963 39.0569 3.03642C40.3044 4.28325 41.0032 5.97078 41 7.7288L40.9398 28.0065C40.9325 29.759 40.228 31.4377 38.9798 32.6763C37.7317 33.9149 36.0411 34.6128 34.277 34.6179L34.2208 34.6181L34.2258 34.6738L35.012 43.4588C35.0381 43.7496 34.973 44.041 34.8256 44.2939C34.6782 44.5463 34.4558 44.7479 34.1889 44.87C33.9219 44.9921 33.6234 45.0295 33.3343 44.9767C33.0452 44.9238 32.7796 44.7833 32.5739 44.575L22.7378 34.5993ZM22.8172 16.591L22.7898 25.7953C22.7902 26.0326 22.7434 26.2678 22.6521 26.4871C22.5608 26.7064 22.4268 26.9056 22.2578 27.0733C22.0888 27.241 21.8881 27.3739 21.6673 27.4643C21.4464 27.5547 21.2098 27.6009 20.9709 27.6002C20.7321 27.5995 20.4957 27.5519 20.2754 27.4602C20.0551 27.3685 19.8552 27.2344 19.6872 27.0657C19.5192 26.897 19.3864 26.697 19.2964 26.4772C19.2064 26.2574 19.161 26.0221 19.1628 25.7849L19.1902 16.5806C19.1898 16.3433 19.2365 16.108 19.3279 15.8887C19.4191 15.6694 19.5531 15.4702 19.7221 15.3025C19.8911 15.1349 20.0918 15.002 20.3127 14.9116C20.5335 14.8211 20.7701 14.775 21.009 14.7757C21.2479 14.7764 21.4842 14.8239 21.7046 14.9157C21.9249 15.0074 22.1248 15.1414 22.2928 15.3101C22.4608 15.4788 22.5936 15.6788 22.6836 15.8986C22.7736 16.1184 22.819 16.3537 22.8172 16.591ZM22.8372 9.83322C22.8362 10.1895 22.7288 10.5376 22.5286 10.8333C22.3285 11.129 22.0446 11.3591 21.7128 11.4945C21.381 11.6299 21.0163 11.6645 20.6646 11.594C20.313 11.5234 19.9904 11.3509 19.7376 11.0981C19.4847 10.8454 19.3129 10.5238 19.244 10.1741C19.1751 9.82445 19.212 9.46234 19.3503 9.13352C19.4885 8.80471 19.7218 8.52396 20.0206 8.32687C20.3194 8.12974 20.6704 8.02509 21.0291 8.02617C21.51 8.0276 21.9708 8.21879 22.3098 8.55766C22.6489 8.89658 22.8387 9.35538 22.8372 9.83322Z" stroke="#F8F8FA" stroke-width="0.2"/>
</svg>
