<svg width="42" height="44" viewBox="0 0 42 44" fill="none" xmlns="http://www.w3.org/2000/svg">
<path d="M2.00002 38V13H9.00002C9.26523 13 9.51959 12.8946 9.70712 12.7071C9.89466 12.5196 10 12.2652 10 12V5H22.06V3H9.00002C8.86841 2.99924 8.73795 3.02446 8.61611 3.07423C8.49427 3.12399 8.38346 3.19732 8.29002 3.29L0.290017 11.29C0.197335 11.3834 0.12401 11.4943 0.0742455 11.6161C0.0244809 11.7379 -0.000744179 11.8684 1.67143e-05 12V38C1.67143e-05 38.7956 0.316087 39.5587 0.878696 40.1213C1.44131 40.6839 2.20437 41 3.00002 41H14V39H3.00002C2.7348 39 2.48045 38.8946 2.29291 38.7071C2.10537 38.5196 2.00002 38.2652 2.00002 38ZM3.41002 11L8.00002 6.41V11H3.41002ZM39 26H19C18.2044 26 17.4413 26.3161 16.8787 26.8787C16.3161 27.4413 16 28.2044 16 29V41C16 41.7956 16.3161 42.5587 16.8787 43.1213C17.4413 43.6839 18.2044 44 19 44H39C39.7957 44 40.5587 43.6839 41.1213 43.1213C41.6839 42.5587 42 41.7956 42 41V29C42 28.2044 41.6839 27.4413 41.1213 26.8787C40.5587 26.3161 39.7957 26 39 26ZM40 41C40 41.2652 39.8947 41.5196 39.7071 41.7071C39.5196 41.8946 39.2652 42 39 42H19C18.7348 42 18.4804 41.8946 18.2929 41.7071C18.1054 41.5196 18 41.2652 18 41V29C18 28.7348 18.1054 28.4804 18.2929 28.2929C18.4804 28.1054 18.7348 28 19 28H39C39.2652 28 39.5196 28.1054 39.7071 28.2929C39.8947 28.4804 40 28.7348 40 29V41ZM34 34H38V36H34V34ZM20 34H24V36H20V34ZM29 22C31.387 22 33.6761 21.0518 35.364 19.364C37.0518 17.6761 38 15.3869 38 13C38 12.7348 37.8947 12.4804 37.7071 12.2929C37.5196 12.1054 37.2652 12 37 12H30V5C30 4.73478 29.8947 4.48043 29.7071 4.29289C29.5196 4.10536 29.2652 4 29 4C26.6131 4 24.3239 4.94821 22.6361 6.63604C20.9482 8.32387 20 10.6131 20 13C20 15.3869 20.9482 17.6761 22.6361 19.364C24.3239 21.0518 26.6131 22 29 22ZM28 6.07V13C28 13.2652 28.1054 13.5196 28.2929 13.7071C28.4804 13.8946 28.7348 14 29 14H35.93C35.7441 15.2856 35.2041 16.494 34.3705 17.4902C33.5369 18.4864 32.4425 19.2309 31.2099 19.6406C29.9772 20.0503 28.6549 20.1089 27.3909 19.8099C26.1268 19.5109 24.9709 18.8661 24.0524 17.9476C23.1339 17.0292 22.4891 15.8732 22.1901 14.6092C21.8911 13.3451 21.9497 12.0228 22.3594 10.7901C22.7691 9.55749 23.5137 8.46315 24.5098 7.62954C25.506 6.79594 26.7145 6.25595 28 6.07ZM33 10H41C41.2652 10 41.5196 9.89464 41.7071 9.70711C41.8947 9.51957 42 9.26522 42 9C42 6.61305 41.0518 4.32387 39.364 2.63604C37.6761 0.948211 35.387 0 33 0C32.7348 0 32.4804 0.105357 32.2929 0.292893C32.1054 0.48043 32 0.734784 32 1V9C32 9.26522 32.1054 9.51957 32.2929 9.70711C32.4804 9.89464 32.7348 10 33 10ZM34 2.07C35.4962 2.28561 36.8824 2.97978 37.9513 4.04868C39.0202 5.11759 39.7144 6.50379 39.93 8H34V2.07ZM18 18H6.00002V16H18V18ZM6.00002 21H18V23H6.00002V21ZM6.00002 26H14V28H6.00002V26ZM6.00002 31H14V33H6.00002V31Z" fill="#37425D"/>
<path d="M26.6037 40.0455V32.5455H28.0952V33.4616H28.1626C28.2289 33.3149 28.3248 33.1657 28.4503 33.0142C28.5781 32.8603 28.7438 32.7325 28.9474 32.6307C29.1534 32.5265 29.4091 32.4744 29.7145 32.4744C30.1122 32.4744 30.4792 32.5786 30.8153 32.7869C31.1515 32.9929 31.4202 33.3042 31.6214 33.7209C31.8227 34.1352 31.9233 34.6548 31.9233 35.2798C31.9233 35.8883 31.825 36.402 31.6286 36.821C31.4344 37.2377 31.1693 37.5537 30.8331 37.7692C30.4993 37.9822 30.1252 38.0888 29.7109 38.0888C29.4174 38.0888 29.1676 38.0402 28.9616 37.9432C28.758 37.8461 28.5911 37.7242 28.4609 37.5774C28.3307 37.4283 28.2313 37.2779 28.1626 37.1264H28.1165V40.0455H26.6037ZM28.0845 35.2727C28.0845 35.5971 28.1295 35.88 28.2195 36.1214C28.3094 36.3629 28.4396 36.5511 28.6101 36.6861C28.7805 36.8187 28.9877 36.8849 29.2315 36.8849C29.4777 36.8849 29.6861 36.8175 29.8565 36.6825C30.027 36.5452 30.156 36.3558 30.2436 36.1143C30.3336 35.8705 30.3786 35.59 30.3786 35.2727C30.3786 34.9579 30.3348 34.6809 30.2472 34.4418C30.1596 34.2027 30.0305 34.0156 29.8601 33.8807C29.6896 33.7457 29.4801 33.6783 29.2315 33.6783C28.9853 33.6783 28.777 33.7434 28.6065 33.8736C28.4384 34.0038 28.3094 34.1884 28.2195 34.4276C28.1295 34.6667 28.0845 34.9484 28.0845 35.2727Z" fill="#37425D"/>
</svg>
