<svg width="32" height="45" viewBox="0 0 32 45" fill="none" xmlns="http://www.w3.org/2000/svg">
<path d="M15.7035 10.3857C18.0241 10.3857 19.9053 8.50445 19.9053 6.18386C19.9053 3.86327 18.0241 1.98206 15.7035 1.98206C13.3829 1.98206 11.5017 3.86327 11.5017 6.18386C11.5017 8.50445 13.3829 10.3857 15.7035 10.3857Z" stroke="#37425D" stroke-width="2"/>
<path d="M30.4099 22.7809C30.4099 21.7514 29.6536 20.9111 28.6452 20.743C26.04 20.285 23.6565 18.9862 21.8592 17.0454L19.1491 14.0411C18.7919 13.642 18.3507 13.3268 17.8675 13.0957C17.8465 13.0957 17.8465 13.0747 17.8255 13.0747H17.8045C17.0272 12.6335 16.1658 12.4234 15.1784 12.5495C13.0355 12.8016 11.5018 14.7344 11.5018 16.8983V29.2937C11.5018 31.6046 13.3926 33.4955 15.7036 33.4955H26.2081V41.8991C26.2081 43.0546 27.1535 44 28.309 44C29.4645 44 30.4099 43.0546 30.4099 41.8991V32.445C30.4099 30.134 28.5191 28.2432 26.2081 28.2432H19.9054V20.9951C22.0063 22.7388 24.9476 24.2305 27.8888 24.8187C29.1914 25.0919 30.4099 24.1044 30.4099 22.7809ZM17.4474 35.5964C16.586 38.0334 14.254 39.7982 11.5018 39.7982C8.01431 39.7982 5.19911 36.983 5.19911 33.4955C5.19911 30.7433 6.96386 28.4323 9.40091 27.5499V23.201C7.5418 23.581 5.82034 24.4575 4.4194 25.7374C3.01846 27.0172 1.99036 28.6527 1.44432 30.47C0.898279 32.2872 0.854688 34.2185 1.31818 36.0586C1.78167 37.8986 2.73493 39.5788 4.0767 40.9206C5.41846 42.2623 7.09862 43.2156 8.93869 43.6791C10.7788 44.1426 12.71 44.099 14.5273 43.5529C16.3446 43.0069 17.98 41.9788 19.2599 40.5779C20.5397 39.1769 21.4162 37.4555 21.7962 35.5964H17.4474Z" stroke="#37425D" stroke-width="2"/>
</svg>
