<svg width="55" height="43" viewBox="0 0 55 43" fill="none" xmlns="http://www.w3.org/2000/svg">
<path d="M27.0896 25.8804C27.0896 25.8804 26.9791 25.8804 26.4021 25.6209L1.60417 15.2428C0.6875 14.9834 0 13.9456 0 12.9078C0 11.8699 0.6875 10.8321 1.60417 10.5727L26.8125 0.194589C27.2708 -0.0648631 27.9583 -0.0648631 28.4167 0.194589L53.625 10.5727C54.3125 10.8321 55 11.8699 55 12.9078C55 13.9456 54.3125 14.9834 53.3958 15.2428L28.1875 25.6209C27.5 25.8804 27.0896 25.8804 27.0896 25.8804ZM3.60656 12.9078C4.05738 13.4578 17.582 18.6339 27.5 21.7395C27.5 21.7395 51.3934 14.4282 50.4918 12.9078C49.5902 11.3874 27.5 3.10565 27.5 3.10565C27.5 3.10565 3.15574 12.3577 3.60656 12.9078Z" fill="#37425D"/>
<path d="M41.0246 41.4087L26.5983 41.4087C25.3446 41.4087 24.7012 41.4304 24.7012 39.9101C24.7012 38.3899 12.7939 37.8903 14.0477 37.8903L38.317 37.3969C38.8736 37.3856 39.3147 36.9212 39.2876 36.3651C38.9877 30.2176 37.7578 25.0052 35.776 21.1603C35.1491 19.8934 35.6805 20.9469 36.5164 20.1868C37.5612 19.4267 38.1436 18.6557 38.7705 19.6692C41.4573 24.9321 41.9164 30.9244 43.4561 39.3765C43.4893 39.5586 43.4731 39.7497 43.4007 39.9201C42.7678 41.4087 42.2121 41.4087 41.0246 41.4087Z" fill="#37425D"/>
<path d="M26.6791 41.4087H12.1721C10.9416 41.4087 10.0194 41.4071 9.98836 39.9299C9.98728 39.8787 9.99156 39.826 9.99939 39.7753C11.2732 31.5311 11.7222 24.5781 14.4262 19.1515C15.0045 17.9542 14.686 18.9692 15.8975 19.1307C16.1109 19.1592 16.3205 19.2255 16.506 19.3348C17.4474 19.8893 18.2779 19.7484 17.7074 20.9296C15.7282 24.8636 14.5 30.1972 14.2009 36.4876C14.1741 37.0514 14.6275 37.5189 15.1919 37.5189H26.6791C27.931 37.5189 41.8657 38.3006 41.8657 39.8559C41.8657 41.4111 27.931 41.4087 26.6791 41.4087ZM47.5435 42.4439C46.2916 42.4439 45.4571 41.4071 45.4571 39.8518V17.3006C45.4571 15.7454 46.2916 16.5635 47.5435 16.5635C48.7954 16.5635 49.1393 13.4554 49.1393 15.0107V27.4333V39.8518C49.1393 41.4071 48.7954 42.4439 47.5435 42.4439Z" fill="#37425D"/>
</svg>
