<svg width="96" height="80" viewBox="0 0 96 80" fill="none" xmlns="http://www.w3.org/2000/svg">
<ellipse cx="62.5" cy="32.5" rx="33.5" ry="32.5" fill="#CCCCCC"/>
<path d="M46.5209 51.5555C46.5209 51.5555 46.3313 51.5555 45.3403 51.11L2.75484 33.2877C1.18065 32.8421 0 31.0599 0 29.2776C0 27.4954 1.18065 25.7132 2.75484 25.2676L46.0452 7.44528C46.8323 6.99972 48.0129 6.99972 48.8 7.44528L92.0903 25.2676C93.271 25.7132 94.4516 27.4954 94.4516 29.2776C94.4516 31.0599 93.271 32.8421 91.6968 33.2877L48.4065 51.11C47.2258 51.5555 46.5209 51.5555 46.5209 51.5555ZM6.19355 29.2776C6.96774 30.2222 30.1936 39.1111 47.2258 44.4444C47.2258 44.4444 88.2581 31.8886 86.7097 29.2776C85.1613 26.6667 47.2258 12.4444 47.2258 12.4444C47.2258 12.4444 5.41935 28.3331 6.19355 29.2776Z" fill="#37425D"/>
<path d="M70.4516 78.2223L45.6774 78.2222C43.5244 78.2222 42.4194 78.2595 42.4194 75.6488C42.4194 73.038 21.9711 72.1801 24.1242 72.1801L66.5273 71.3181C67.0839 71.3068 67.5246 70.8428 67.5015 70.2866C67.0495 59.4137 64.9192 50.2033 61.4382 43.4497C60.3616 41.274 61.2743 43.0832 62.7097 41.7778C64.5039 40.4724 65.5041 39.1484 66.5807 40.8889C71.216 49.9685 71.9903 60.3123 74.664 74.933C74.6973 75.1151 74.6807 75.3056 74.6107 75.477C73.4905 78.2222 72.5399 78.2223 70.4516 78.2223Z" fill="#37425D"/>
<path d="M45.8161 78.2222H20.9032C18.7747 78.2222 17.1835 78.2195 17.1521 75.6273C17.1515 75.576 17.1557 75.5228 17.1635 75.4721C19.3576 61.2904 20.1246 49.3312 24.7742 40C25.8033 37.8693 25.1787 39.8182 27.5374 39.9884C27.7522 40.0039 27.9631 40.0725 28.1438 40.1898C29.84 41.2909 31.4293 40.9407 30.409 43.0534C26.9328 49.9632 24.8056 59.3868 24.3546 70.5114C24.3318 71.0753 24.7848 71.5424 25.3492 71.5424H45.8161C47.9659 71.5424 71.896 72.8847 71.896 75.5556C71.896 78.2264 47.9659 78.2222 45.8161 78.2222ZM81.6466 80C79.4968 80 78.0636 78.2194 78.0636 75.5486V36.8215C78.0636 34.1506 79.4968 35.5556 81.6466 35.5556C83.7964 35.5556 84.3871 30.2181 84.3871 32.8889V54.2222V75.5486C84.3871 78.2194 83.7964 80 81.6466 80Z" fill="#37425D"/>
</svg>
