<svg width="48" height="62" viewBox="0 0 48 62" fill="none" xmlns="http://www.w3.org/2000/svg">
<path d="M41.6019 44.1498C40.595 44.2837 39.6716 44.7723 39.003 45.5252C38.3343 46.278 37.9659 47.2439 37.9659 48.2437C37.9659 49.2435 38.3343 50.2094 39.003 50.9622C39.6716 51.7151 40.595 52.2038 41.6019 52.3377H43.4068C45.9364 52.3377 47.9944 49.9959 47.9944 47.1177C48.048 45.9824 47.7144 44.862 47.0468 43.9346C46.3791 43.0072 45.4157 42.3259 44.3095 41.9989V35.0007C44.3095 34.7409 44.2093 34.4908 44.0293 34.3007C43.8492 34.1107 43.6026 33.9949 43.3393 33.9767C43.2775 33.9724 43.0518 33.9578 42.6994 33.9411V31.2413C42.6994 30.969 42.5895 30.7079 42.3939 30.5154C42.1982 30.3229 41.9329 30.2147 41.6562 30.2147C35.2785 30.2839 29.091 32.3611 24.0002 36.1419C18.9092 32.3606 12.7212 30.2832 6.343 30.2141C6.06631 30.2141 5.80096 30.3223 5.60531 30.5148C5.40967 30.7073 5.29975 30.9684 5.29975 31.2407V33.9412C4.94797 33.9578 4.72274 33.972 4.6615 33.9765C4.39811 33.9947 4.15153 34.1105 3.97147 34.3005C3.79142 34.4906 3.69129 34.7407 3.69128 35.0005V41.9989C2.58483 42.3256 1.6211 43.0068 0.953289 43.9343C0.285474 44.8617 -0.0480977 45.9823 0.00560245 47.1177C0.00560245 49.9959 2.06361 52.3377 4.59327 52.3377H6.39808C7.40487 52.2036 8.32811 51.7148 8.9966 50.962C9.6651 50.2092 10.0335 49.2434 10.0335 48.2437C10.0335 47.244 9.6651 46.2782 8.9966 45.5254C8.32811 44.7726 7.40487 44.2838 6.39808 44.1498H5.77714V35.9784C8.73547 35.8707 17.7304 35.7922 22.9566 38.4303V58.9194C17.2407 56.507 8.80652 56.5743 5.77714 56.6865V54.3255C5.77714 54.0532 5.66723 53.7921 5.47158 53.5996C5.27594 53.4071 5.01058 53.2989 4.7339 53.2989C4.45721 53.2989 4.19186 53.4071 3.99621 53.5996C3.80057 53.7921 3.69065 54.0532 3.69065 54.3255V57.7671C3.6907 57.9079 3.72016 58.0472 3.77721 58.1764C3.83426 58.3056 3.91768 58.4218 4.0223 58.5179C4.12745 58.6133 4.25119 58.6867 4.38603 58.7337C4.52086 58.7806 4.66399 58.8002 4.80672 58.7911C4.93055 58.7836 17.3496 57.9766 23.4777 61.4607C23.6364 61.551 23.8165 61.5986 23.9998 61.5986C24.1831 61.5986 24.3632 61.551 24.5219 61.4607C30.6475 57.9766 43.0685 58.7831 43.1938 58.7911C43.3364 58.7995 43.4792 58.7797 43.6138 58.7328C43.7484 58.6859 43.872 58.6128 43.9773 58.5179C44.0821 58.4219 44.1656 58.3057 44.2228 58.1765C44.2799 58.0473 44.3094 57.908 44.3095 57.7671V54.3256C44.3095 54.0533 44.1996 53.7922 44.0039 53.5997C43.8083 53.4072 43.5429 53.299 43.2662 53.299C42.9895 53.299 42.7242 53.4072 42.5285 53.5997C42.3329 53.7922 42.223 54.0533 42.223 54.3256V56.6866C39.1959 56.5742 30.7596 56.507 25.0435 58.9194V38.4294C30.264 35.7946 39.2647 35.8703 42.2234 35.978V44.1494L41.6019 44.1498ZM6.3985 46.2029C7.238 46.2029 7.94761 47.1378 7.94761 48.244C7.94761 49.3502 7.23821 50.2845 6.3985 50.2845H4.59369C3.21431 50.2845 2.09209 48.864 2.09209 47.1177C2.06189 46.5291 2.19467 45.9433 2.47628 45.4231C2.75789 44.9029 3.17775 44.4676 3.69107 44.1638V45.1763C3.69107 45.4486 3.80098 45.7097 3.99663 45.9022C4.19228 46.0947 4.45763 46.2029 4.73432 46.2029H6.3985ZM7.38624 33.8818V32.2888C10.7163 32.4458 13.9879 33.2094 17.0349 34.5409C13.8439 34.0492 10.6157 33.8287 7.38624 33.8818ZM30.9427 34.5441C33.9963 33.2086 37.2757 32.4438 40.6136 32.2887V33.8818C37.3767 33.8281 34.1408 34.0496 30.9427 34.5441ZM43.2667 46.2029C43.5433 46.2029 43.8087 46.0947 44.0043 45.9022C44.2 45.7097 44.3099 45.4486 44.3099 45.1763V44.1643C44.823 44.4682 45.2427 44.9034 45.5242 45.4235C45.8057 45.9436 45.9385 46.5292 45.9084 47.1177C45.9084 48.864 44.7867 50.2845 43.4072 50.2845H41.6024C40.7629 50.2845 40.0527 49.3504 40.0527 48.244C40.0527 47.1375 40.7629 46.2029 41.6024 46.2029H43.2667Z" fill="#37425D"/>
<path d="M13.7668 15.9992C14.2657 16.3383 14.832 16.5697 15.4283 16.678C16.0246 16.7863 16.6375 16.7692 17.2266 16.6278C18.3892 16.308 19.3986 15.5923 20.0747 14.6082C22.2808 16.7399 25.2056 18.0002 28.2938 18.1498C29.7845 18.1451 31.2507 17.776 32.5606 17.0757C32.2894 20.3894 30.9273 25.0446 28.3717 27.7261C27.8314 28.3521 27.1625 28.8584 26.409 29.2117C25.6555 29.5649 24.8345 29.7571 24.0001 29.7755C18.836 29.7755 16.3083 22.73 15.6287 18.5671C15.583 18.2999 15.4318 18.0613 15.2081 17.9033C14.9843 17.7454 14.7062 17.6809 14.4343 17.7239C14.1624 17.7669 13.9189 17.9139 13.7567 18.1329C13.5946 18.3519 13.527 18.6251 13.5687 18.8929C14.5421 24.8603 17.8588 31.8286 24.0001 31.8286C25.1208 31.8153 26.2258 31.5678 27.242 31.1026C28.2581 30.6373 29.1623 29.9649 29.8944 29.1299C33.3674 25.4857 34.7664 19.1258 34.6944 15.5976C37.2009 13.2082 37.9842 8.31935 37.4325 4.52173C37.19 2.85512 36.5875 0.741344 35.0873 0.133317C34.0114 -0.301736 33.1128 0.404019 32.1633 1.15484C31.1431 2.13736 29.8666 2.82294 28.4749 3.13568C27.0833 3.44842 25.6308 3.37611 24.2783 2.92677C20.0875 1.78596 12.7323 1.88995 10.8446 7.03C10.3204 8.63819 10.3204 10.3674 10.8443 11.9756C11.3683 13.5838 12.3901 14.9907 13.7668 15.9992ZM12.8061 7.72775C14.126 4.13431 20.0976 3.91822 23.7214 4.90566C25.3923 5.44446 27.1801 5.52909 28.8959 5.15058C30.6116 4.77208 32.1916 3.94451 33.4688 2.75534C33.7574 2.5133 34.0631 2.2917 34.3836 2.09218C34.978 2.88278 35.3199 3.82954 35.3657 4.81193C35.8578 8.19586 35.1008 12.6905 32.9848 14.3552C26.8802 19.1562 20.9279 12.5562 20.6778 12.273C20.5798 12.162 20.4588 12.073 20.3228 12.0119C20.1869 11.9509 20.0392 11.9193 19.8898 11.9192C19.8472 11.9191 19.8047 11.9217 19.7624 11.9272C19.5928 11.9474 19.4309 12.0084 19.2909 12.1047C19.1509 12.201 19.0372 12.3298 18.9597 12.4796C18.7616 12.9739 18.4597 13.4215 18.0737 13.7932C17.6877 14.1649 17.2264 14.4522 16.7198 14.6363C16.4201 14.7075 16.1086 14.7157 15.8055 14.6603C15.5024 14.605 15.2146 14.4873 14.9608 14.3151C13.9585 13.567 13.2143 12.5338 12.8288 11.3555C12.4434 10.1771 12.4355 8.91068 12.8061 7.72775Z" fill="#37425D"/>
<path d="M24.0001 27.5171C24.76 27.5611 25.5153 27.3752 26.1646 26.9843C26.8138 26.5934 27.326 26.0163 27.6321 25.3306C27.7251 25.0802 27.7142 24.8038 27.6017 24.5612C27.4892 24.3186 27.2843 24.1294 27.0311 24.0344C26.7754 23.9385 26.4918 23.9441 26.2401 24.0499C25.9885 24.1557 25.7885 24.3536 25.6822 24.6017C25.5216 24.8945 25.2755 25.1332 24.9757 25.2869C24.6758 25.4407 24.336 25.5024 24.0001 25.464C23.6649 25.502 23.3258 25.4405 23.0263 25.2875C22.7268 25.1345 22.4806 24.897 22.3192 24.6054C22.2214 24.3507 22.0247 24.1447 21.7725 24.0326C21.5203 23.9206 21.2332 23.9117 20.9744 24.0079C20.7155 24.1042 20.5061 24.2977 20.3922 24.5458C20.2784 24.794 20.2693 25.0765 20.3672 25.3312C20.6737 26.0168 21.1861 26.5937 21.8355 26.9845C22.4849 27.3752 23.2403 27.5611 24.0001 27.5171Z" fill="#37425D"/>
</svg>
